{"nbformat":4,"nbformat_minor":0,"metadata":{"colab":{"name":"Project 3 - base.ipynb","provenance":[],"collapsed_sections":[],"authorship_tag":"ABX9TyOi3XLAkhxmtBlZDjOUao8H"},"kernelspec":{"name":"python3","display_name":"Python 3"},"language_info":{"name":"python"},"accelerator":"GPU"},"cells":[{"cell_type":"code","metadata":{"colab":{"base_uri":"https://localhost:8080/"},"id":"QpaIayOg8mKL","executionInfo":{"status":"ok","timestamp":1637727845570,"user_tz":360,"elapsed":368180,"user":{"displayName":"Alejandro Morales Peña","photoUrl":"https://lh3.googleusercontent.com/a-/AOh14Gi2-q4a4LtieexGZkerCzX1ydu5-JoAvsl6NJIkTw=s64","userId":"10432378894395982959"}},"outputId":"9587bfc4-1543-4302-a41b-0566461d35b7"},"source":["!apt install cmake libboost-all-dev libsdl2-dev libfreetype6-dev libgl1-mesa-dev libglu1-mesa-dev libpng-dev libjpeg-dev libbz2-dev libfluidsynth-dev libgme-dev libopenal-dev zlib1g-dev timidity tar nasm\n","!pip install vizdoom==1.1.9"],"execution_count":1,"outputs":[{"output_type":"stream","name":"stdout","text":["Reading package lists... Done\n","Building dependency tree       \n","Reading state information... Done\n","libglu1-mesa-dev is already the newest version (9.0.0-2.1build1).\n","libglu1-mesa-dev set to manually installed.\n","libjpeg-dev is already the newest version (8c-2ubuntu8).\n","libjpeg-dev set to manually installed.\n","zlib1g-dev is already the newest version (1:1.2.11.dfsg-0ubuntu2).\n","zlib1g-dev set to manually installed.\n","libboost-all-dev is already the newest version (1.65.1.0ubuntu1).\n","cmake is already the newest version (3.10.2-1ubuntu2.18.04.2).\n","libbz2-dev is already the newest version (1.0.6-8.1ubuntu0.2).\n","libbz2-dev set to manually installed.\n","libfreetype6-dev is already the newest version (2.8.1-2ubuntu2.1).\n","libgl1-mesa-dev is already the newest version (20.0.8-0ubuntu1~18.04.1).\n","libgl1-mesa-dev set to manually installed.\n","libpng-dev is already the newest version (1.6.34-1ubuntu0.18.04.2).\n","The following additional packages will be installed:\n","  freepats gir1.2-ibus-1.0 libaudio2 libcapnp-0.6.1 libdbus-1-dev\n","  libfluidsynth1 libibus-1.0-5 libibus-1.0-dev libmirclient-dev libmirclient9\n","  libmircommon-dev libmircommon7 libmircookie-dev libmircookie2 libmircore-dev\n","  libmircore1 libmirprotobuf3 libprotobuf-dev libprotobuf-lite10 libpulse-dev\n","  libpulse-mainloop-glib0 libsndio-dev libudev-dev libxcursor-dev\n","  libxinerama-dev libxkbcommon-dev libxrandr-dev libxv-dev timidity-daemon\n","  x11proto-randr-dev x11proto-xinerama-dev\n","Suggested packages:\n","  nas fluidr3mono-gm-soundfont | timgm6mb-soundfont | fluid-soundfont-gm\n","  ncompress tar-scripts tar-doc fluid-soundfont-gm fluid-soundfont-gs pmidi\n","The following NEW packages will be installed:\n","  freepats gir1.2-ibus-1.0 libaudio2 libcapnp-0.6.1 libdbus-1-dev\n","  libfluidsynth-dev libfluidsynth1 libgme-dev libibus-1.0-5 libibus-1.0-dev\n","  libmirclient-dev libmirclient9 libmircommon-dev libmircommon7\n","  libmircookie-dev libmircookie2 libmircore-dev libmircore1 libmirprotobuf3\n","  libopenal-dev libprotobuf-dev libprotobuf-lite10 libpulse-dev\n","  libpulse-mainloop-glib0 libsdl2-dev libsndio-dev libudev-dev libxcursor-dev\n","  libxinerama-dev libxkbcommon-dev libxrandr-dev libxv-dev nasm timidity\n","  timidity-daemon x11proto-randr-dev x11proto-xinerama-dev\n","The following packages will be upgraded:\n","  tar\n","1 upgraded, 37 newly installed, 0 to remove and 36 not upgraded.\n","Need to get 34.2 MB of archives.\n","After this operation, 63.8 MB of additional disk space will be used.\n","Get:1 http://archive.ubuntu.com/ubuntu bionic-updates/main amd64 tar amd64 1.29b-2ubuntu0.2 [234 kB]\n","Get:2 http://archive.ubuntu.com/ubuntu bionic/universe amd64 freepats all 20060219-1 [29.0 MB]\n","Get:3 http://archive.ubuntu.com/ubuntu bionic-updates/main amd64 libibus-1.0-5 amd64 1.5.17-3ubuntu5.3 [133 kB]\n","Get:4 http://archive.ubuntu.com/ubuntu bionic-updates/main amd64 gir1.2-ibus-1.0 amd64 1.5.17-3ubuntu5.3 [66.5 kB]\n","Get:5 http://archive.ubuntu.com/ubuntu bionic/main amd64 libaudio2 amd64 1.9.4-6 [50.3 kB]\n","Get:6 http://archive.ubuntu.com/ubuntu bionic/main amd64 libcapnp-0.6.1 amd64 0.6.1-1ubuntu1 [658 kB]\n","Get:7 http://archive.ubuntu.com/ubuntu bionic-updates/main amd64 libdbus-1-dev amd64 1.12.2-1ubuntu1.2 [165 kB]\n","Get:8 http://archive.ubuntu.com/ubuntu bionic/universe amd64 libfluidsynth1 amd64 1.1.9-1 [137 kB]\n","Get:9 http://archive.ubuntu.com/ubuntu bionic/universe amd64 libfluidsynth-dev amd64 1.1.9-1 [19.7 kB]\n","Get:10 http://archive.ubuntu.com/ubuntu bionic/universe amd64 libgme-dev amd64 0.6.2-1 [5,796 B]\n","Get:11 http://archive.ubuntu.com/ubuntu bionic-updates/main amd64 libibus-1.0-dev amd64 1.5.17-3ubuntu5.3 [145 kB]\n","Get:12 http://archive.ubuntu.com/ubuntu bionic/main amd64 libmircore1 amd64 0.31.1-0ubuntu1 [26.5 kB]\n","Get:13 http://archive.ubuntu.com/ubuntu bionic/main amd64 libmircommon7 amd64 0.31.1-0ubuntu1 [73.9 kB]\n","Get:14 http://archive.ubuntu.com/ubuntu bionic/main amd64 libprotobuf-lite10 amd64 3.0.0-9.1ubuntu1 [97.7 kB]\n","Get:15 http://archive.ubuntu.com/ubuntu bionic/main amd64 libmirprotobuf3 amd64 0.31.1-0ubuntu1 [127 kB]\n","Get:16 http://archive.ubuntu.com/ubuntu bionic/main amd64 libmirclient9 amd64 0.31.1-0ubuntu1 [199 kB]\n","Get:17 http://archive.ubuntu.com/ubuntu bionic/main amd64 libmircore-dev amd64 0.31.1-0ubuntu1 [21.7 kB]\n","Get:18 http://archive.ubuntu.com/ubuntu bionic/main amd64 libprotobuf-dev amd64 3.0.0-9.1ubuntu1 [959 kB]\n","Get:19 http://archive.ubuntu.com/ubuntu bionic-updates/main amd64 libxkbcommon-dev amd64 0.8.2-1~ubuntu18.04.1 [150 kB]\n","Get:20 http://archive.ubuntu.com/ubuntu bionic/main amd64 libmircommon-dev amd64 0.31.1-0ubuntu1 [13.9 kB]\n","Get:21 http://archive.ubuntu.com/ubuntu bionic/main amd64 libmircookie2 amd64 0.31.1-0ubuntu1 [19.7 kB]\n","Get:22 http://archive.ubuntu.com/ubuntu bionic/main amd64 libmircookie-dev amd64 0.31.1-0ubuntu1 [4,392 B]\n","Get:23 http://archive.ubuntu.com/ubuntu bionic/main amd64 libmirclient-dev amd64 0.31.1-0ubuntu1 [47.8 kB]\n","Get:24 http://archive.ubuntu.com/ubuntu bionic/universe amd64 libopenal-dev amd64 1:1.18.2-2 [20.9 kB]\n","Get:25 http://archive.ubuntu.com/ubuntu bionic-updates/main amd64 libpulse-mainloop-glib0 amd64 1:11.1-1ubuntu7.11 [22.1 kB]\n","Get:26 http://archive.ubuntu.com/ubuntu bionic-updates/main amd64 libpulse-dev amd64 1:11.1-1ubuntu7.11 [81.5 kB]\n","Get:27 http://archive.ubuntu.com/ubuntu bionic/universe amd64 libsndio-dev amd64 1.1.0-3 [13.3 kB]\n","Get:28 http://archive.ubuntu.com/ubuntu bionic-updates/main amd64 libudev-dev amd64 237-3ubuntu10.52 [19.1 kB]\n","Get:29 http://archive.ubuntu.com/ubuntu bionic/main amd64 libxcursor-dev amd64 1:1.1.15-1 [26.5 kB]\n","Get:30 http://archive.ubuntu.com/ubuntu bionic/main amd64 x11proto-xinerama-dev all 2018.4-4 [2,628 B]\n","Get:31 http://archive.ubuntu.com/ubuntu bionic/main amd64 libxinerama-dev amd64 2:1.1.3-1 [8,404 B]\n","Get:32 http://archive.ubuntu.com/ubuntu bionic/main amd64 x11proto-randr-dev all 2018.4-4 [2,620 B]\n","Get:33 http://archive.ubuntu.com/ubuntu bionic/main amd64 libxrandr-dev amd64 2:1.5.1-1 [24.0 kB]\n","Get:34 http://archive.ubuntu.com/ubuntu bionic/main amd64 libxv-dev amd64 2:1.0.11-1 [32.5 kB]\n","Get:35 http://archive.ubuntu.com/ubuntu bionic-updates/universe amd64 libsdl2-dev amd64 2.0.8+dfsg1-1ubuntu1.18.04.4 [683 kB]\n","Get:36 http://archive.ubuntu.com/ubuntu bionic/universe amd64 nasm amd64 2.13.02-0.1 [359 kB]\n","Get:37 http://archive.ubuntu.com/ubuntu bionic/universe amd64 timidity amd64 2.13.2-41 [585 kB]\n","Get:38 http://archive.ubuntu.com/ubuntu bionic/universe amd64 timidity-daemon all 2.13.2-41 [5,984 B]\n","Fetched 34.2 MB in 4s (9,177 kB/s)\n","Extracting templates from packages: 100%\n","(Reading database ... 155222 files and directories currently installed.)\n","Preparing to unpack .../tar_1.29b-2ubuntu0.2_amd64.deb ...\n","Unpacking tar (1.29b-2ubuntu0.2) over (1.29b-2ubuntu0.1) ...\n","Setting up tar (1.29b-2ubuntu0.2) ...\n","update-alternatives: warning: forcing reinstallation of alternative /usr/sbin/rmt-tar because link group rmt is broken\n","Selecting previously unselected package freepats.\n","(Reading database ... 155222 files and directories currently installed.)\n","Preparing to unpack .../00-freepats_20060219-1_all.deb ...\n","Unpacking freepats (20060219-1) ...\n","Selecting previously unselected package libibus-1.0-5:amd64.\n","Preparing to unpack .../01-libibus-1.0-5_1.5.17-3ubuntu5.3_amd64.deb ...\n","Unpacking libibus-1.0-5:amd64 (1.5.17-3ubuntu5.3) ...\n","Selecting previously unselected package gir1.2-ibus-1.0:amd64.\n","Preparing to unpack .../02-gir1.2-ibus-1.0_1.5.17-3ubuntu5.3_amd64.deb ...\n","Unpacking gir1.2-ibus-1.0:amd64 (1.5.17-3ubuntu5.3) ...\n","Selecting previously unselected package libaudio2:amd64.\n","Preparing to unpack .../03-libaudio2_1.9.4-6_amd64.deb ...\n","Unpacking libaudio2:amd64 (1.9.4-6) ...\n","Selecting previously unselected package libcapnp-0.6.1:amd64.\n","Preparing to unpack .../04-libcapnp-0.6.1_0.6.1-1ubuntu1_amd64.deb ...\n","Unpacking libcapnp-0.6.1:amd64 (0.6.1-1ubuntu1) ...\n","Selecting previously unselected package libdbus-1-dev:amd64.\n","Preparing to unpack .../05-libdbus-1-dev_1.12.2-1ubuntu1.2_amd64.deb ...\n","Unpacking libdbus-1-dev:amd64 (1.12.2-1ubuntu1.2) ...\n","Selecting previously unselected package libfluidsynth1:amd64.\n","Preparing to unpack .../06-libfluidsynth1_1.1.9-1_amd64.deb ...\n","Unpacking libfluidsynth1:amd64 (1.1.9-1) ...\n","Selecting previously unselected package libfluidsynth-dev:amd64.\n","Preparing to unpack .../07-libfluidsynth-dev_1.1.9-1_amd64.deb ...\n","Unpacking libfluidsynth-dev:amd64 (1.1.9-1) ...\n","Selecting previously unselected package libgme-dev:amd64.\n","Preparing to unpack .../08-libgme-dev_0.6.2-1_amd64.deb ...\n","Unpacking libgme-dev:amd64 (0.6.2-1) ...\n","Selecting previously unselected package libibus-1.0-dev:amd64.\n","Preparing to unpack .../09-libibus-1.0-dev_1.5.17-3ubuntu5.3_amd64.deb ...\n","Unpacking libibus-1.0-dev:amd64 (1.5.17-3ubuntu5.3) ...\n","Selecting previously unselected package libmircore1:amd64.\n","Preparing to unpack .../10-libmircore1_0.31.1-0ubuntu1_amd64.deb ...\n","Unpacking libmircore1:amd64 (0.31.1-0ubuntu1) ...\n","Selecting previously unselected package libmircommon7:amd64.\n","Preparing to unpack .../11-libmircommon7_0.31.1-0ubuntu1_amd64.deb ...\n","Unpacking libmircommon7:amd64 (0.31.1-0ubuntu1) ...\n","Selecting previously unselected package libprotobuf-lite10:amd64.\n","Preparing to unpack .../12-libprotobuf-lite10_3.0.0-9.1ubuntu1_amd64.deb ...\n","Unpacking libprotobuf-lite10:amd64 (3.0.0-9.1ubuntu1) ...\n","Selecting previously unselected package libmirprotobuf3:amd64.\n","Preparing to unpack .../13-libmirprotobuf3_0.31.1-0ubuntu1_amd64.deb ...\n","Unpacking libmirprotobuf3:amd64 (0.31.1-0ubuntu1) ...\n","Selecting previously unselected package libmirclient9:amd64.\n","Preparing to unpack .../14-libmirclient9_0.31.1-0ubuntu1_amd64.deb ...\n","Unpacking libmirclient9:amd64 (0.31.1-0ubuntu1) ...\n","Selecting previously unselected package libmircore-dev:amd64.\n","Preparing to unpack .../15-libmircore-dev_0.31.1-0ubuntu1_amd64.deb ...\n","Unpacking libmircore-dev:amd64 (0.31.1-0ubuntu1) ...\n","Selecting previously unselected package libprotobuf-dev:amd64.\n","Preparing to unpack .../16-libprotobuf-dev_3.0.0-9.1ubuntu1_amd64.deb ...\n","Unpacking libprotobuf-dev:amd64 (3.0.0-9.1ubuntu1) ...\n","Selecting previously unselected package libxkbcommon-dev:amd64.\n","Preparing to unpack .../17-libxkbcommon-dev_0.8.2-1~ubuntu18.04.1_amd64.deb ...\n","Unpacking libxkbcommon-dev:amd64 (0.8.2-1~ubuntu18.04.1) ...\n","Selecting previously unselected package libmircommon-dev:amd64.\n","Preparing to unpack .../18-libmircommon-dev_0.31.1-0ubuntu1_amd64.deb ...\n","Unpacking libmircommon-dev:amd64 (0.31.1-0ubuntu1) ...\n","Selecting previously unselected package libmircookie2:amd64.\n","Preparing to unpack .../19-libmircookie2_0.31.1-0ubuntu1_amd64.deb ...\n","Unpacking libmircookie2:amd64 (0.31.1-0ubuntu1) ...\n","Selecting previously unselected package libmircookie-dev:amd64.\n","Preparing to unpack .../20-libmircookie-dev_0.31.1-0ubuntu1_amd64.deb ...\n","Unpacking libmircookie-dev:amd64 (0.31.1-0ubuntu1) ...\n","Selecting previously unselected package libmirclient-dev:amd64.\n","Preparing to unpack .../21-libmirclient-dev_0.31.1-0ubuntu1_amd64.deb ...\n","Unpacking libmirclient-dev:amd64 (0.31.1-0ubuntu1) ...\n","Selecting previously unselected package libopenal-dev:amd64.\n","Preparing to unpack .../22-libopenal-dev_1%3a1.18.2-2_amd64.deb ...\n","Unpacking libopenal-dev:amd64 (1:1.18.2-2) ...\n","Selecting previously unselected package libpulse-mainloop-glib0:amd64.\n","Preparing to unpack .../23-libpulse-mainloop-glib0_1%3a11.1-1ubuntu7.11_amd64.deb ...\n","Unpacking libpulse-mainloop-glib0:amd64 (1:11.1-1ubuntu7.11) ...\n","Selecting previously unselected package libpulse-dev:amd64.\n","Preparing to unpack .../24-libpulse-dev_1%3a11.1-1ubuntu7.11_amd64.deb ...\n","Unpacking libpulse-dev:amd64 (1:11.1-1ubuntu7.11) ...\n","Selecting previously unselected package libsndio-dev:amd64.\n","Preparing to unpack .../25-libsndio-dev_1.1.0-3_amd64.deb ...\n","Unpacking libsndio-dev:amd64 (1.1.0-3) ...\n","Selecting previously unselected package libudev-dev:amd64.\n","Preparing to unpack .../26-libudev-dev_237-3ubuntu10.52_amd64.deb ...\n","Unpacking libudev-dev:amd64 (237-3ubuntu10.52) ...\n","Selecting previously unselected package libxcursor-dev:amd64.\n","Preparing to unpack .../27-libxcursor-dev_1%3a1.1.15-1_amd64.deb ...\n","Unpacking libxcursor-dev:amd64 (1:1.1.15-1) ...\n","Selecting previously unselected package x11proto-xinerama-dev.\n","Preparing to unpack .../28-x11proto-xinerama-dev_2018.4-4_all.deb ...\n","Unpacking x11proto-xinerama-dev (2018.4-4) ...\n","Selecting previously unselected package libxinerama-dev:amd64.\n","Preparing to unpack .../29-libxinerama-dev_2%3a1.1.3-1_amd64.deb ...\n","Unpacking libxinerama-dev:amd64 (2:1.1.3-1) ...\n","Selecting previously unselected package x11proto-randr-dev.\n","Preparing to unpack .../30-x11proto-randr-dev_2018.4-4_all.deb ...\n","Unpacking x11proto-randr-dev (2018.4-4) ...\n","Selecting previously unselected package libxrandr-dev:amd64.\n","Preparing to unpack .../31-libxrandr-dev_2%3a1.5.1-1_amd64.deb ...\n","Unpacking libxrandr-dev:amd64 (2:1.5.1-1) ...\n","Selecting previously unselected package libxv-dev:amd64.\n","Preparing to unpack .../32-libxv-dev_2%3a1.0.11-1_amd64.deb ...\n","Unpacking libxv-dev:amd64 (2:1.0.11-1) ...\n","Selecting previously unselected package libsdl2-dev:amd64.\n","Preparing to unpack .../33-libsdl2-dev_2.0.8+dfsg1-1ubuntu1.18.04.4_amd64.deb ...\n","Unpacking libsdl2-dev:amd64 (2.0.8+dfsg1-1ubuntu1.18.04.4) ...\n","Selecting previously unselected package nasm.\n","Preparing to unpack .../34-nasm_2.13.02-0.1_amd64.deb ...\n","Unpacking nasm (2.13.02-0.1) ...\n","Selecting previously unselected package timidity.\n","Preparing to unpack .../35-timidity_2.13.2-41_amd64.deb ...\n","Unpacking timidity (2.13.2-41) ...\n","Selecting previously unselected package timidity-daemon.\n","Preparing to unpack .../36-timidity-daemon_2.13.2-41_all.deb ...\n","Unpacking timidity-daemon (2.13.2-41) ...\n","Setting up libdbus-1-dev:amd64 (1.12.2-1ubuntu1.2) ...\n","Setting up libxcursor-dev:amd64 (1:1.1.15-1) ...\n","Setting up libxkbcommon-dev:amd64 (0.8.2-1~ubuntu18.04.1) ...\n","Setting up libpulse-mainloop-glib0:amd64 (1:11.1-1ubuntu7.11) ...\n","Setting up libpulse-dev:amd64 (1:11.1-1ubuntu7.11) ...\n","Setting up libmircore-dev:amd64 (0.31.1-0ubuntu1) ...\n","Setting up libgme-dev:amd64 (0.6.2-1) ...\n","Setting up libsndio-dev:amd64 (1.1.0-3) ...\n","Setting up libopenal-dev:amd64 (1:1.18.2-2) ...\n","Setting up libmircookie2:amd64 (0.31.1-0ubuntu1) ...\n","Setting up x11proto-xinerama-dev (2018.4-4) ...\n","Setting up x11proto-randr-dev (2018.4-4) ...\n","Setting up libxinerama-dev:amd64 (2:1.1.3-1) ...\n","Setting up libxv-dev:amd64 (2:1.0.11-1) ...\n","Setting up nasm (2.13.02-0.1) ...\n","Setting up libcapnp-0.6.1:amd64 (0.6.1-1ubuntu1) ...\n","Setting up libibus-1.0-5:amd64 (1.5.17-3ubuntu5.3) ...\n","Setting up libmircore1:amd64 (0.31.1-0ubuntu1) ...\n","Setting up freepats (20060219-1) ...\n","Setting up libprotobuf-lite10:amd64 (3.0.0-9.1ubuntu1) ...\n","Setting up libudev-dev:amd64 (237-3ubuntu10.52) ...\n","Setting up libfluidsynth1:amd64 (1.1.9-1) ...\n","Setting up libaudio2:amd64 (1.9.4-6) ...\n","Setting up gir1.2-ibus-1.0:amd64 (1.5.17-3ubuntu5.3) ...\n","Setting up libxrandr-dev:amd64 (2:1.5.1-1) ...\n","Setting up libmirprotobuf3:amd64 (0.31.1-0ubuntu1) ...\n","Setting up libprotobuf-dev:amd64 (3.0.0-9.1ubuntu1) ...\n","Setting up libmircookie-dev:amd64 (0.31.1-0ubuntu1) ...\n","Setting up libibus-1.0-dev:amd64 (1.5.17-3ubuntu5.3) ...\n","Setting up libmircommon7:amd64 (0.31.1-0ubuntu1) ...\n","Setting up libfluidsynth-dev:amd64 (1.1.9-1) ...\n","Setting up timidity (2.13.2-41) ...\n","Setting up libmirclient9:amd64 (0.31.1-0ubuntu1) ...\n","Setting up libmircommon-dev:amd64 (0.31.1-0ubuntu1) ...\n","Setting up timidity-daemon (2.13.2-41) ...\n","Adding group timidity....done\n","Adding system user timidity....done\n","Adding user `timidity' to group `audio' ...\n","Adding user timidity to group audio\n","Done.\n","invoke-rc.d: could not determine current runlevel\n","invoke-rc.d: policy-rc.d denied execution of stop.\n","invoke-rc.d: could not determine current runlevel\n","invoke-rc.d: policy-rc.d denied execution of start.\n","Setting up libmirclient-dev:amd64 (0.31.1-0ubuntu1) ...\n","Setting up libsdl2-dev:amd64 (2.0.8+dfsg1-1ubuntu1.18.04.4) ...\n","Processing triggers for libc-bin (2.27-3ubuntu1.3) ...\n","/sbin/ldconfig.real: /usr/local/lib/python3.7/dist-packages/ideep4py/lib/libmkldnn.so.0 is not a symbolic link\n","\n","Processing triggers for systemd (237-3ubuntu10.52) ...\n","Processing triggers for man-db (2.8.3-2ubuntu0.1) ...\n","Processing triggers for mime-support (3.60ubuntu1) ...\n","Collecting vizdoom==1.1.9\n","  Downloading vizdoom-1.1.9.tar.gz (15.0 MB)\n","\u001b[K     |████████████████████████████████| 15.0 MB 7.0 MB/s \n","\u001b[?25h  Installing build dependencies ... \u001b[?25l\u001b[?25hdone\n","  Getting requirements to build wheel ... \u001b[?25l\u001b[?25hdone\n","  Installing backend dependencies ... \u001b[?25l\u001b[?25hdone\n","    Preparing wheel metadata ... \u001b[?25l\u001b[?25hdone\n","Requirement already satisfied: numpy in /usr/local/lib/python3.7/dist-packages (from vizdoom==1.1.9) (1.19.5)\n","Building wheels for collected packages: vizdoom\n","  Building wheel for vizdoom (PEP 517) ... \u001b[?25l\u001b[?25hdone\n","  Created wheel for vizdoom: filename=vizdoom-1.1.9-py3-none-any.whl size=14082055 sha256=f473fd8e2bccdece92ff4b5abe0476247cf34cca66d185287a5431ba2d975297\n","  Stored in directory: /root/.cache/pip/wheels/89/75/34/2c03a5cc9d572ad08bed39e67bf0da279f63b03864a3aa2c66\n","Successfully built vizdoom\n","Installing collected packages: vizdoom\n","Successfully installed vizdoom-1.1.9\n"]}]},{"cell_type":"code","metadata":{"id":"5SLvaqRy8XSo","executionInfo":{"status":"ok","timestamp":1637727851630,"user_tz":360,"elapsed":6065,"user":{"displayName":"Alejandro Morales Peña","photoUrl":"https://lh3.googleusercontent.com/a-/AOh14Gi2-q4a4LtieexGZkerCzX1ydu5-JoAvsl6NJIkTw=s64","userId":"10432378894395982959"}}},"source":["import vizdoom as vzd\n","from vizdoom import Mode\n","import torch\n","import torch.nn as nn\n","import torch.optim as optim\n","import numpy as np\n","import random\n","import itertools as it\n","import skimage.transform\n","from time import sleep, time\n","from collections import deque\n","from tqdm import trange\n","\n","import PIL\n","import numpy as np\n","import os\n","\n","import json\n","import zipfile\n","import os.path"],"execution_count":2,"outputs":[]},{"cell_type":"code","metadata":{"id":"C6cPOqlbGXAd","colab":{"base_uri":"https://localhost:8080/"},"executionInfo":{"status":"ok","timestamp":1637727855030,"user_tz":360,"elapsed":2571,"user":{"displayName":"Alejandro Morales Peña","photoUrl":"https://lh3.googleusercontent.com/a-/AOh14Gi2-q4a4LtieexGZkerCzX1ydu5-JoAvsl6NJIkTw=s64","userId":"10432378894395982959"}},"outputId":"788506cf-841c-44c5-b448-fefb33860621"},"source":["KAGGLE_DIR = '/root/.kaggle'\n","KAGGLE_JSON = '/root/.kaggle/kaggle.json'\n","\n","!rm -rf $KAGGLE_DIR\n","!mkdir $KAGGLE_DIR\n","!touch $KAGGLE_JSON\n","\n","# for further information check:\n","# 1) https://stackoverflow.com/questions/56816537/cant-find-kaggle-json-file-in-google-colab\n","# 2) https://github.com/Kaggle/kaggle-api#api-credentials\n","api_token = {\"username\":\"alejandromp12\",\"key\":\"3e66a7513e5ca8e651ba775382b06f3b\"}\n","\n","with open(KAGGLE_JSON, 'w') as file:\n","    json.dump(api_token, file)\n","\n","!chmod 600 $KAGGLE_JSON\n","\n","# directory that contains vizdoom\n","directory_vizdoom = '/content/ViZDoom-master/ViZDoom-master'\n","if os.path.exists(directory_vizdoom):\n","  print(\"VIZDoom already downloaded!\")\n","else:\n","  !kaggle datasets download --unzip -p /content/ alejandromp12/myweightsganstask"],"execution_count":3,"outputs":[{"output_type":"stream","name":"stdout","text":["Downloading myweightsganstask.zip to /content\n"," 88% 5.00M/5.71M [00:00<00:00, 37.4MB/s]\n","100% 5.71M/5.71M [00:00<00:00, 36.5MB/s]\n"]}]},{"cell_type":"code","metadata":{"id":"erN90FGiH0eh","executionInfo":{"status":"ok","timestamp":1637727855031,"user_tz":360,"elapsed":16,"user":{"displayName":"Alejandro Morales Peña","photoUrl":"https://lh3.googleusercontent.com/a-/AOh14Gi2-q4a4LtieexGZkerCzX1ydu5-JoAvsl6NJIkTw=s64","userId":"10432378894395982959"}}},"source":["# Q-learning settings\n","learning_rate = 0.00025\n","discount_factor = 0.99\n","train_epochs = 10 #5\n","learning_steps_per_epoch = 2000\n","replay_memory_size = 10000\n","\n","# NN learning settings\n","batch_size = 64\n","\n","# Training regime\n","test_episodes_per_epoch = 100\n","\n","# Other parameters\n","frame_repeat = 12\n","resolution = (30, 45)\n","episodes_to_watch = 10\n","\n","model_savefile = \"/content/model-doom.pth\"\n","model_savefile_base = \"/content/model-doom-base.pth\"\n","save_model = True\n","load_model = False\n","skip_learning = False\n","\n","# Uses GPU if available\n","if torch.cuda.is_available():\n","    DEVICE = torch.device('cuda')\n","    torch.backends.cudnn.benchmark = True\n","else:\n","    DEVICE = torch.device('cpu')"],"execution_count":4,"outputs":[]},{"cell_type":"code","metadata":{"id":"jPKE9LJKIkaw","executionInfo":{"status":"ok","timestamp":1637729827904,"user_tz":360,"elapsed":499,"user":{"displayName":"Alejandro Morales Peña","photoUrl":"https://lh3.googleusercontent.com/a-/AOh14Gi2-q4a4LtieexGZkerCzX1ydu5-JoAvsl6NJIkTw=s64","userId":"10432378894395982959"}}},"source":["class DuelQNet(nn.Module):\n","    \"\"\"\n","    This is Duel DQN architecture.\n","    see https://arxiv.org/abs/1511.06581 for more information.\n","    \"\"\"\n","\n","    def __init__(self, available_actions_count):\n","        super(DuelQNet, self).__init__()\n","        self.conv1 = nn.Sequential(\n","            nn.Conv2d(1, 8, kernel_size=3, stride=2, bias=False),\n","            nn.BatchNorm2d(8),\n","            nn.ReLU()\n","        )\n","\n","        self.conv2 = nn.Sequential(\n","            nn.Conv2d(8, 8, kernel_size=3, stride=2, bias=False),\n","            nn.BatchNorm2d(8),\n","            nn.ReLU()\n","        )\n","\n","        self.conv3 = nn.Sequential(\n","            nn.Conv2d(8, 8, kernel_size=3, stride=1, bias=False),\n","            nn.BatchNorm2d(8),\n","            nn.ReLU()\n","        )\n","\n","        self.conv4 = nn.Sequential(\n","            nn.Conv2d(8, 16, kernel_size=3, stride=1, bias=False),\n","            nn.BatchNorm2d(16),\n","            nn.ReLU()\n","        )\n","\n","        self.state_fc = nn.Sequential(\n","            nn.Linear(96, 64),\n","            nn.ReLU(),\n","            nn.Linear(64, 1)\n","        )\n","\n","        self.advantage_fc = nn.Sequential(\n","            nn.Linear(96, 64),\n","            nn.ReLU(),\n","            nn.Linear(64, available_actions_count)\n","        )\n","\n","    def forward(self, x):\n","        x = self.conv1(x)\n","        x = self.conv2(x)\n","        x = self.conv3(x)\n","        x = self.conv4(x)\n","        x = x.view(-1, 192)\n","        x1 = x[:, :96]  # input for the net to calculate the state value\n","        x2 = x[:, 96:]  # relative advantage of actions in the state\n","        state_value = self.state_fc(x1).reshape(-1, 1)\n","        advantage_values = self.advantage_fc(x2)\n","        x = state_value + (advantage_values - advantage_values.mean(dim=1).reshape(-1, 1))\n","\n","        return x\n","\n","class DQNAgent:\n","    def __init__(self, action_size, memory_size, batch_size, discount_factor, \n","                 lr, load_model, model_file, epsilon=1, epsilon_decay=0.9996, epsilon_min=0.1):\n","        self.action_size = action_size\n","        self.epsilon = epsilon\n","        self.epsilon_decay = epsilon_decay\n","        self.epsilon_min = epsilon_min\n","        self.batch_size = batch_size\n","        self.discount = discount_factor\n","        self.lr = lr\n","        self.memory = deque(maxlen=memory_size)\n","        self.criterion = nn.MSELoss()\n","\n","        if load_model:\n","            print(\"Loading model from: \", model_file)\n","            self.q_net = torch.load(model_file)\n","            self.target_net = torch.load(model_file)\n","            self.epsilon = self.epsilon_min\n","\n","        else:\n","            print(\"Initializing new model\")\n","            self.q_net = DuelQNet(action_size).to(DEVICE)\n","            self.target_net = DuelQNet(action_size).to(DEVICE)\n","\n","        self.opt = optim.SGD(self.q_net.parameters(), lr=self.lr)\n","\n","    def get_action(self, state):\n","        if np.random.uniform() < self.epsilon:\n","            return random.choice(range(self.action_size))\n","        else:\n","            state = np.expand_dims(state, axis=0)\n","            state = torch.from_numpy(state).float().to(DEVICE)\n","            action = torch.argmax(self.q_net(state)).item()\n","            return action\n","\n","    def update_target_net(self):\n","        self.target_net.load_state_dict(self.q_net.state_dict())\n","\n","    def append_memory(self, state, action, reward, next_state, done):\n","        self.memory.append((state, action, reward, next_state, done))\n","\n","    def train(self):\n","        batch = random.sample(self.memory, self.batch_size)\n","        batch = np.array(batch, dtype=object)\n","\n","        states = np.stack(batch[:, 0]).astype(float)\n","        actions = batch[:, 1].astype(int)\n","        rewards = batch[:, 2].astype(float)\n","        next_states = np.stack(batch[:, 3]).astype(float)\n","        dones = batch[:, 4].astype(bool)\n","        not_dones = ~dones\n","\n","        row_idx = np.arange(self.batch_size)  # used for indexing the batch\n","\n","        # value of the next states with double q learning\n","        # see https://arxiv.org/abs/1509.06461 for more information on double q learning\n","        with torch.no_grad():\n","            next_states = torch.from_numpy(next_states).float().to(DEVICE)\n","            idx = row_idx, np.argmax(self.q_net(next_states).cpu().data.numpy(), 1)\n","            next_state_values = self.target_net(next_states).cpu().data.numpy()[idx]\n","            next_state_values = next_state_values[not_dones]\n","\n","        # this defines y = r + discount * max_a q(s', a)\n","        q_targets = rewards.copy()\n","        q_targets[not_dones] += self.discount * next_state_values\n","        q_targets = torch.from_numpy(q_targets).float().to(DEVICE)\n","\n","        # this selects only the q values of the actions taken\n","        idx = row_idx, actions\n","        states = torch.from_numpy(states).float().to(DEVICE)\n","        action_values = self.q_net(states)[idx].float().to(DEVICE)\n","\n","        self.opt.zero_grad()\n","        td_error = self.criterion(q_targets, action_values)\n","        td_error.backward()\n","        self.opt.step()\n","\n","        if self.epsilon > self.epsilon_min:\n","            self.epsilon *= self.epsilon_decay\n","        else:\n","            self.epsilon = self.epsilon_min"],"execution_count":14,"outputs":[]},{"cell_type":"code","metadata":{"id":"nBmBg7cWIQs1","executionInfo":{"status":"ok","timestamp":1637729835664,"user_tz":360,"elapsed":217,"user":{"displayName":"Alejandro Morales Peña","photoUrl":"https://lh3.googleusercontent.com/a-/AOh14Gi2-q4a4LtieexGZkerCzX1ydu5-JoAvsl6NJIkTw=s64","userId":"10432378894395982959"}}},"source":["def preprocess(img):\n","    \"\"\"Down samples image to resolution\"\"\"\n","    img = skimage.transform.resize(img, resolution)\n","    img = img.astype(np.float32)\n","    img = np.expand_dims(img, axis=0)\n","    return img\n","\n","\n","def create_simple_game(config_file_path):\n","    print(\"Initializing doom...\")\n","    game = vzd.DoomGame()\n","    game.load_config(config_file_path)\n","    game.set_window_visible(False)\n","    game.set_mode(Mode.PLAYER)\n","    game.set_screen_format(vzd.ScreenFormat.GRAY8)\n","    game.set_screen_resolution(vzd.ScreenResolution.RES_640X480)\n","    game.init()\n","    print(\"Doom initialized.\")\n","\n","    return game\n","\n","def test(game, agent, actions):\n","    \"\"\"Runs a test_episodes_per_epoch episodes and prints the result\"\"\"\n","    print(\"\\nTesting...\")\n","    test_scores = []\n","    for test_episode in trange(test_episodes_per_epoch, leave=False):\n","        game.new_episode()\n","        while not game.is_episode_finished():\n","            state = preprocess(game.get_state().screen_buffer)\n","            best_action_index = agent.get_action(state)\n","\n","            game.make_action(actions[best_action_index], frame_repeat)\n","        r = game.get_total_reward()\n","        test_scores.append(r)\n","\n","    test_scores = np.array(test_scores)\n","    print(\"Results: mean: %.1f +/- %.1f,\" % (\n","        test_scores.mean(), test_scores.std()), \"min: %.1f\" % test_scores.min(),\n","          \"max: %.1f\" % test_scores.max())\n","\n","\n","def run(game, agent, actions, num_epochs, frame_repeat, steps_per_epoch=2000):\n","    \"\"\"\n","    Run num epochs of training episodes.\n","    Skip frame_repeat number of frames after each action.\n","    \"\"\"\n","\n","    start_time = time()\n","\n","    for epoch in range(num_epochs):\n","        game.new_episode()\n","        train_scores = []\n","        global_step = 0\n","        print(\"\\nEpoch #\" + str(epoch + 1))\n","\n","        for _ in trange(steps_per_epoch, leave=False):\n","            state = preprocess(game.get_state().screen_buffer)\n","            action = agent.get_action(state)\n","            reward = game.make_action(actions[action], frame_repeat)\n","            done = game.is_episode_finished()\n","\n","            if not done:\n","                next_state = preprocess(game.get_state().screen_buffer)\n","            else:\n","                next_state = np.zeros((1, 30, 45)).astype(np.float32)\n","\n","            agent.append_memory(state, action, reward, next_state, done)\n","\n","            if global_step > agent.batch_size:\n","                agent.train()\n","\n","            if done:\n","                train_scores.append(game.get_total_reward())\n","                game.new_episode()\n","\n","            global_step += 1\n","\n","        agent.update_target_net()\n","        train_scores = np.array(train_scores)\n","\n","        print(\"Results: mean: %.1f +/- %.1f,\" % (train_scores.mean(), train_scores.std()),\n","              \"min: %.1f,\" % train_scores.min(), \"max: %.1f,\" % train_scores.max())\n","\n","        test(game, agent, actions)\n","        if save_model:\n","            print(\"Saving the network weights to:\", model_savefile_base)\n","            torch.save(agent.q_net, model_savefile_base)\n","        print(\"Total elapsed time: %.2f minutes\" % ((time() - start_time) / 60.0))\n","\n","    game.close()\n","    return agent, game"],"execution_count":15,"outputs":[]},{"cell_type":"code","metadata":{"id":"YaYlISMVgPIs","executionInfo":{"status":"ok","timestamp":1637729352824,"user_tz":360,"elapsed":4,"user":{"displayName":"Alejandro Morales Peña","photoUrl":"https://lh3.googleusercontent.com/a-/AOh14Gi2-q4a4LtieexGZkerCzX1ydu5-JoAvsl6NJIkTw=s64","userId":"10432378894395982959"}}},"source":["# Initialize game and actions\n","doom_game = None\n","doom_agent = None\n","doom_actions = []"],"execution_count":8,"outputs":[]},{"cell_type":"code","metadata":{"id":"HEtPtiadIy29","executionInfo":{"status":"ok","timestamp":1637729841772,"user_tz":360,"elapsed":249,"user":{"displayName":"Alejandro Morales Peña","photoUrl":"https://lh3.googleusercontent.com/a-/AOh14Gi2-q4a4LtieexGZkerCzX1ydu5-JoAvsl6NJIkTw=s64","userId":"10432378894395982959"}}},"source":["def train_agent(agent, game):\n","    n = game.get_available_buttons_size()\n","    doom_actions = [list(a) for a in it.product([0, 1], repeat=n)]\n","  \n","    agent = DQNAgent(len(doom_actions), lr=learning_rate, batch_size=batch_size,\n","                     memory_size=replay_memory_size, discount_factor=discount_factor,\n","                     load_model = os.path.isfile(model_savefile_base), model_file = model_savefile_base)\n","\n","    # Run the training for the set number of epochs\n","    if not skip_learning:\n","        agent, game = run(game, agent, doom_actions, num_epochs=train_epochs, frame_repeat=frame_repeat,\n","                          steps_per_epoch=learning_steps_per_epoch)\n","\n","        print(\"======================================\")\n","        print(\"Training finished. It's time to watch!\")\n","    return agent, game"],"execution_count":16,"outputs":[]},{"cell_type":"code","metadata":{"id":"zV9tQ5xCa5bV","executionInfo":{"status":"ok","timestamp":1637730585125,"user_tz":360,"elapsed":316,"user":{"displayName":"Alejandro Morales Peña","photoUrl":"https://lh3.googleusercontent.com/a-/AOh14Gi2-q4a4LtieexGZkerCzX1ydu5-JoAvsl6NJIkTw=s64","userId":"10432378894395982959"}}},"source":["train_the_model = False\n","\n","if __name__ == '__main__' and train_the_model is True:\n","  # Configuration file path\n","  #config_file_path = directory_vizdoom + \"/scenarios/simpler_basic.cfg\"\n","  # config_file_path = directory_vizdoom + \"/scenarios/rocket_basic.cfg\"\n","  config_file_paths = [directory_vizdoom + \"/scenarios/basic.cfg\",\n","                      directory_vizdoom + \"/scenarios/defend_the_center.cfg\",\n","                      directory_vizdoom + \"/scenarios/health_gathering.cfg\",\n","                      directory_vizdoom + \"/scenarios/defend_the_line.cfg\"\n","                      ]\n","\n","  for idx , conf_file  in enumerate(config_file_paths):\n","    doom_game = create_simple_game(conf_file)\n","    if conf_file == directory_vizdoom + \"/scenarios/basic.cfg\":\n","      doom_game.set_episode_timeout(8400)\n","    doom_agent, doom_game = train_agent(doom_agent, doom_game)\n","    doom_game.close()"],"execution_count":18,"outputs":[]},{"cell_type":"code","metadata":{"id":"mHY6RZyUUBTW","colab":{"base_uri":"https://localhost:8080/"},"executionInfo":{"status":"ok","timestamp":1637730595016,"user_tz":360,"elapsed":494,"user":{"displayName":"Alejandro Morales Peña","photoUrl":"https://lh3.googleusercontent.com/a-/AOh14Gi2-q4a4LtieexGZkerCzX1ydu5-JoAvsl6NJIkTw=s64","userId":"10432378894395982959"}},"outputId":"28770ecf-18d7-4ca4-db9b-87cc9075cac4"},"source":["use_loaded_model = True\n","#conf_file = directory_vizdoom + \"/scenarios/deadly_corridor.cfg\"\n","#conf_file = directory_vizdoom + \"/scenarios/defend_the_line.cfg\"\n","#conf_file = directory_vizdoom + \"/scenarios/deathmatch.cfg\"\n","conf_file = directory_vizdoom + \"/scenarios/defend_the_center.cfg\"\n","model_to_test = model_savefile_base\n","#model_to_test = model_savefile_preproc\n","#model_to_test = model_savefile\n","if use_loaded_model and os.path.isfile(model_to_test):\n","  doom_game = create_simple_game(conf_file)\n","  #doom_game = create_simple_game(conf_file, train_mode = True)\n","  n = doom_game.get_available_buttons_size()\n","  doom_actions = [list(a) for a in it.product([0, 1], repeat=n)]\n","  doom_agent = DQNAgent(len(doom_actions), lr=learning_rate, batch_size=batch_size,\n","                   memory_size=replay_memory_size, discount_factor=discount_factor,\n","                   load_model = True, model_file = model_to_test)"],"execution_count":19,"outputs":[{"output_type":"stream","name":"stdout","text":["Initializing doom...\n","Doom initialized.\n","Loading model from:  /content/model-doom-base.pth\n"]}]},{"cell_type":"code","metadata":{"id":"xdNLE85egwFj","colab":{"base_uri":"https://localhost:8080/"},"executionInfo":{"status":"ok","timestamp":1637730725013,"user_tz":360,"elapsed":126373,"user":{"displayName":"Alejandro Morales Peña","photoUrl":"https://lh3.googleusercontent.com/a-/AOh14Gi2-q4a4LtieexGZkerCzX1ydu5-JoAvsl6NJIkTw=s64","userId":"10432378894395982959"}},"outputId":"a2b4d22c-247f-43c8-bc70-f4eb51bbe156"},"source":["# Reinitialize the game\n","episodes_images = []\n","\n","doom_game.close()\n","doom_game.set_mode(Mode.ASYNC_PLAYER)\n","if conf_file == directory_vizdoom + \"/scenarios/basic.cfg\":\n","  doom_game.set_episode_timeout(6000)\n","#doom_game.set_doom_skill(5) # very easy just to test\n","doom_game.set_render_all_frames(True)\n","doom_game.init()\n","for _ in range(episodes_to_watch):\n","    doom_game.new_episode()\n","    img_frames = []\n","    while not doom_game.is_episode_finished():\n","        image_buffer = doom_game.get_state().screen_buffer\n","        #image_buffer = doom_game.get_state().labels_buffer\n","        img_frames.append(image_buffer)\n","        state = preprocess(image_buffer)\n","        best_action_index = doom_agent.get_action(state)\n","        # Instead of make_action(a, frame_repeat) in order to make the animation smooth\n","        doom_game.set_action(doom_actions[best_action_index])\n","        for _ in range(frame_repeat):\n","            doom_game.advance_action()\n","    # Sleep between episodes\n","    sleep(1.0)\n","    score = doom_game.get_total_reward()\n","    episodes_images.append(img_frames)\n","    print(\"Total score: \", score)"],"execution_count":20,"outputs":[{"output_type":"stream","name":"stdout","text":["Total score:  1.0\n","Total score:  3.0\n","Total score:  0.0\n","Total score:  2.0\n","Total score:  1.0\n","Total score:  -1.0\n","Total score:  0.0\n","Total score:  3.0\n","Total score:  3.0\n","Total score:  1.0\n"]}]},{"cell_type":"code","metadata":{"id":"8K8ASzW9uFrZ","executionInfo":{"status":"ok","timestamp":1637730738929,"user_tz":360,"elapsed":13923,"user":{"displayName":"Alejandro Morales Peña","photoUrl":"https://lh3.googleusercontent.com/a-/AOh14Gi2-q4a4LtieexGZkerCzX1ydu5-JoAvsl6NJIkTw=s64","userId":"10432378894395982959"}}},"source":["doom_data_path = '/content/doom_data'\n","!rm -rf $doom_data_path\n","!mkdir -p $doom_data_path\n","for data_index , frames  in enumerate(episodes_images):\n","  episode_dir = '{0}/episode_{1}'.format(doom_data_path, str(data_index))\n","  !mkdir -p $episode_dir\n","  for idx , image in enumerate(frames):\n","    PIL.Image.fromarray(image).save('{}/{}.png'.format(episode_dir, idx))"],"execution_count":21,"outputs":[]},{"cell_type":"code","metadata":{"id":"ecER_KCzkAdB","colab":{"base_uri":"https://localhost:8080/"},"executionInfo":{"status":"ok","timestamp":1637730792609,"user_tz":360,"elapsed":53684,"user":{"displayName":"Alejandro Morales Peña","photoUrl":"https://lh3.googleusercontent.com/a-/AOh14Gi2-q4a4LtieexGZkerCzX1ydu5-JoAvsl6NJIkTw=s64","userId":"10432378894395982959"}},"outputId":"fc281005-da3f-4dff-e772-1b91e922c900"},"source":["doom_videos_path = '/content/doom_videos'\n","!rm -rf $doom_videos_path\n","!mkdir -p $doom_videos_path\n","episode_names = [item for item in os.listdir(doom_data_path)]\n","\n","episodes_dirs = []\n","for dir in os.listdir(doom_data_path):\n","  episodes_dirs.append(doom_data_path + '/' + dir)\n","\n","for idx , dir  in enumerate(episodes_dirs, start=0):\n","  episode = doom_videos_path + '/' + episode_names[idx] + '.mp4'\n","  frames = f'{dir}/%01d.png'\n","  !ffmpeg -r 1/0.7 -start_number 0 -i $frames -c:v libx264 -vf fps=25 -pix_fmt yuv420p $episode"],"execution_count":22,"outputs":[{"output_type":"stream","name":"stdout","text":["ffmpeg version 3.4.8-0ubuntu0.2 Copyright (c) 2000-2020 the FFmpeg developers\n","  built with gcc 7 (Ubuntu 7.5.0-3ubuntu1~18.04)\n","  configuration: --prefix=/usr --extra-version=0ubuntu0.2 --toolchain=hardened --libdir=/usr/lib/x86_64-linux-gnu --incdir=/usr/include/x86_64-linux-gnu --enable-gpl --disable-stripping --enable-avresample --enable-avisynth --enable-gnutls --enable-ladspa --enable-libass --enable-libbluray --enable-libbs2b --enable-libcaca --enable-libcdio --enable-libflite --enable-libfontconfig --enable-libfreetype --enable-libfribidi --enable-libgme --enable-libgsm --enable-libmp3lame --enable-libmysofa --enable-libopenjpeg --enable-libopenmpt --enable-libopus --enable-libpulse --enable-librubberband --enable-librsvg --enable-libshine --enable-libsnappy --enable-libsoxr --enable-libspeex --enable-libssh --enable-libtheora --enable-libtwolame --enable-libvorbis --enable-libvpx --enable-libwavpack --enable-libwebp --enable-libx265 --enable-libxml2 --enable-libxvid --enable-libzmq --enable-libzvbi --enable-omx --enable-openal --enable-opengl --enable-sdl2 --enable-libdc1394 --enable-libdrm --enable-libiec61883 --enable-chromaprint --enable-frei0r --enable-libopencv --enable-libx264 --enable-shared\n","  libavutil      55. 78.100 / 55. 78.100\n","  libavcodec     57.107.100 / 57.107.100\n","  libavformat    57. 83.100 / 57. 83.100\n","  libavdevice    57. 10.100 / 57. 10.100\n","  libavfilter     6.107.100 /  6.107.100\n","  libavresample   3.  7.  0 /  3.  7.  0\n","  libswscale      4.  8.100 /  4.  8.100\n","  libswresample   2.  9.100 /  2.  9.100\n","  libpostproc    54.  7.100 / 54.  7.100\n","Input #0, image2, from '/content/doom_data/episode_3/%01d.png':\n","  Duration: 00:00:01.40, start: 0.000000, bitrate: N/A\n","    Stream #0:0: Video: png, gray(pc), 640x480, 25 fps, 25 tbr, 25 tbn, 25 tbc\n","Stream mapping:\n","  Stream #0:0 -> #0:0 (png (native) -> h264 (libx264))\n","Press [q] to stop, [?] for help\n","\u001b[1;36m[libx264 @ 0x5653a98b9e00] \u001b[0musing cpu capabilities: MMX2 SSE2Fast SSSE3 SSE4.2 AVX FMA3 BMI2 AVX2\n","\u001b[1;36m[libx264 @ 0x5653a98b9e00] \u001b[0mprofile High, level 3.0\n","\u001b[1;36m[libx264 @ 0x5653a98b9e00] \u001b[0m264 - core 152 r2854 e9a5903 - H.264/MPEG-4 AVC codec - Copyleft 2003-2017 - http://www.videolan.org/x264.html - options: cabac=1 ref=3 deblock=1:0:0 analyse=0x3:0x113 me=hex subme=7 psy=1 psy_rd=1.00:0.00 mixed_ref=1 me_range=16 chroma_me=1 trellis=1 8x8dct=1 cqm=0 deadzone=21,11 fast_pskip=1 chroma_qp_offset=-2 threads=3 lookahead_threads=1 sliced_threads=0 nr=0 decimate=1 interlaced=0 bluray_compat=0 constrained_intra=0 bframes=3 b_pyramid=2 b_adapt=1 b_bias=0 direct=1 weightb=1 open_gop=0 weightp=2 keyint=250 keyint_min=25 scenecut=40 intra_refresh=0 rc_lookahead=40 rc=crf mbtree=1 crf=23.0 qcomp=0.60 qpmin=0 qpmax=69 qpstep=4 ip_ratio=1.40 aq=1:1.00\n","Output #0, mp4, to '/content/doom_videos/episode_3.mp4':\n","  Metadata:\n","    encoder         : Lavf57.83.100\n","    Stream #0:0: Video: h264 (libx264) (avc1 / 0x31637661), yuv420p, 640x480, q=-1--1, 25 fps, 12800 tbn, 25 tbc\n","    Metadata:\n","      encoder         : Lavc57.107.100 libx264\n","    Side data:\n","      cpb: bitrate max/min/avg: 0/0/0 buffer size: 0 vbv_delay: -1\n","frame=  613 fps=107 q=-1.0 Lsize=    1339kB time=00:00:24.40 bitrate= 449.5kbits/s speed=4.27x    \n","video:1331kB audio:0kB subtitle:0kB other streams:0kB global headers:0kB muxing overhead: 0.602203%\n","\u001b[1;36m[libx264 @ 0x5653a98b9e00] \u001b[0mframe I:3     Avg QP:17.05  size: 67737\n","\u001b[1;36m[libx264 @ 0x5653a98b9e00] \u001b[0mframe P:154   Avg QP:16.56  size:  7427\n","\u001b[1;36m[libx264 @ 0x5653a98b9e00] \u001b[0mframe B:456   Avg QP:23.28  size:    33\n","\u001b[1;36m[libx264 @ 0x5653a98b9e00] \u001b[0mconsecutive B-frames:  0.8%  0.0%  0.0% 99.2%\n","\u001b[1;36m[libx264 @ 0x5653a98b9e00] \u001b[0mmb I  I16..4: 10.4% 22.3% 67.3%\n","\u001b[1;36m[libx264 @ 0x5653a98b9e00] \u001b[0mmb P  I16..4:  0.3%  1.6%  4.8%  P16..4:  6.9%  2.4%  2.1%  0.0%  0.0%    skip:81.8%\n","\u001b[1;36m[libx264 @ 0x5653a98b9e00] \u001b[0mmb B  I16..4:  0.0%  0.0%  0.0%  B16..8:  1.3%  0.0%  0.0%  direct: 0.0%  skip:98.7%  L0:30.3% L1:68.7% BI: 1.0%\n","\u001b[1;36m[libx264 @ 0x5653a98b9e00] \u001b[0m8x8 transform intra:24.4% inter:44.5%\n","\u001b[1;36m[libx264 @ 0x5653a98b9e00] \u001b[0mcoded y,uvDC,uvAC intra: 94.2% 0.0% 0.0% inter: 2.0% 0.0% 0.0%\n","\u001b[1;36m[libx264 @ 0x5653a98b9e00] \u001b[0mi16 v,h,dc,p: 24% 15% 52%  8%\n","\u001b[1;36m[libx264 @ 0x5653a98b9e00] \u001b[0mi8 v,h,dc,ddl,ddr,vr,hd,vl,hu:  9% 13% 37%  6%  7%  7%  7%  5%  9%\n","\u001b[1;36m[libx264 @ 0x5653a98b9e00] \u001b[0mi4 v,h,dc,ddl,ddr,vr,hd,vl,hu: 16% 23% 19%  6%  7%  5%  9%  5% 10%\n","\u001b[1;36m[libx264 @ 0x5653a98b9e00] \u001b[0mi8c dc,h,v,p: 100%  0%  0%  0%\n","\u001b[1;36m[libx264 @ 0x5653a98b9e00] \u001b[0mWeighted P-Frames: Y:2.6% UV:0.0%\n","\u001b[1;36m[libx264 @ 0x5653a98b9e00] \u001b[0mref P L0: 68.9% 12.2% 17.5%  1.4%  0.0%\n","\u001b[1;36m[libx264 @ 0x5653a98b9e00] \u001b[0mref B L0: 91.8%  7.6%  0.5%\n","\u001b[1;36m[libx264 @ 0x5653a98b9e00] \u001b[0mref B L1: 87.8% 12.2%\n","\u001b[1;36m[libx264 @ 0x5653a98b9e00] \u001b[0mkb/s:444.42\n","ffmpeg version 3.4.8-0ubuntu0.2 Copyright (c) 2000-2020 the FFmpeg developers\n","  built with gcc 7 (Ubuntu 7.5.0-3ubuntu1~18.04)\n","  configuration: --prefix=/usr --extra-version=0ubuntu0.2 --toolchain=hardened --libdir=/usr/lib/x86_64-linux-gnu --incdir=/usr/include/x86_64-linux-gnu --enable-gpl --disable-stripping --enable-avresample --enable-avisynth --enable-gnutls --enable-ladspa --enable-libass --enable-libbluray --enable-libbs2b --enable-libcaca --enable-libcdio --enable-libflite --enable-libfontconfig --enable-libfreetype --enable-libfribidi --enable-libgme --enable-libgsm --enable-libmp3lame --enable-libmysofa --enable-libopenjpeg --enable-libopenmpt --enable-libopus --enable-libpulse --enable-librubberband --enable-librsvg --enable-libshine --enable-libsnappy --enable-libsoxr --enable-libspeex --enable-libssh --enable-libtheora --enable-libtwolame --enable-libvorbis --enable-libvpx --enable-libwavpack --enable-libwebp --enable-libx265 --enable-libxml2 --enable-libxvid --enable-libzmq --enable-libzvbi --enable-omx --enable-openal --enable-opengl --enable-sdl2 --enable-libdc1394 --enable-libdrm --enable-libiec61883 --enable-chromaprint --enable-frei0r --enable-libopencv --enable-libx264 --enable-shared\n","  libavutil      55. 78.100 / 55. 78.100\n","  libavcodec     57.107.100 / 57.107.100\n","  libavformat    57. 83.100 / 57. 83.100\n","  libavdevice    57. 10.100 / 57. 10.100\n","  libavfilter     6.107.100 /  6.107.100\n","  libavresample   3.  7.  0 /  3.  7.  0\n","  libswscale      4.  8.100 /  4.  8.100\n","  libswresample   2.  9.100 /  2.  9.100\n","  libpostproc    54.  7.100 / 54.  7.100\n","Input #0, image2, from '/content/doom_data/episode_2/%01d.png':\n","  Duration: 00:00:01.20, start: 0.000000, bitrate: N/A\n","    Stream #0:0: Video: png, gray(pc), 640x480, 25 fps, 25 tbr, 25 tbn, 25 tbc\n","Stream mapping:\n","  Stream #0:0 -> #0:0 (png (native) -> h264 (libx264))\n","Press [q] to stop, [?] for help\n","\u001b[1;36m[libx264 @ 0x559dccd2fe00] \u001b[0musing cpu capabilities: MMX2 SSE2Fast SSSE3 SSE4.2 AVX FMA3 BMI2 AVX2\n","\u001b[1;36m[libx264 @ 0x559dccd2fe00] \u001b[0mprofile High, level 3.0\n","\u001b[1;36m[libx264 @ 0x559dccd2fe00] \u001b[0m264 - core 152 r2854 e9a5903 - H.264/MPEG-4 AVC codec - Copyleft 2003-2017 - http://www.videolan.org/x264.html - options: cabac=1 ref=3 deblock=1:0:0 analyse=0x3:0x113 me=hex subme=7 psy=1 psy_rd=1.00:0.00 mixed_ref=1 me_range=16 chroma_me=1 trellis=1 8x8dct=1 cqm=0 deadzone=21,11 fast_pskip=1 chroma_qp_offset=-2 threads=3 lookahead_threads=1 sliced_threads=0 nr=0 decimate=1 interlaced=0 bluray_compat=0 constrained_intra=0 bframes=3 b_pyramid=2 b_adapt=1 b_bias=0 direct=1 weightb=1 open_gop=0 weightp=2 keyint=250 keyint_min=25 scenecut=40 intra_refresh=0 rc_lookahead=40 rc=crf mbtree=1 crf=23.0 qcomp=0.60 qpmin=0 qpmax=69 qpstep=4 ip_ratio=1.40 aq=1:1.00\n","Output #0, mp4, to '/content/doom_videos/episode_2.mp4':\n","  Metadata:\n","    encoder         : Lavf57.83.100\n","    Stream #0:0: Video: h264 (libx264) (avc1 / 0x31637661), yuv420p, 640x480, q=-1--1, 25 fps, 12800 tbn, 25 tbc\n","    Metadata:\n","      encoder         : Lavc57.107.100 libx264\n","    Side data:\n","      cpb: bitrate max/min/avg: 0/0/0 buffer size: 0 vbv_delay: -1\n","frame=  525 fps=105 q=-1.0 Lsize=    1267kB time=00:00:20.88 bitrate= 496.9kbits/s speed=4.19x    \n","video:1260kB audio:0kB subtitle:0kB other streams:0kB global headers:0kB muxing overhead: 0.553818%\n","\u001b[1;36m[libx264 @ 0x559dccd2fe00] \u001b[0mframe I:3     Avg QP:17.17  size: 71363\n","\u001b[1;36m[libx264 @ 0x559dccd2fe00] \u001b[0mframe P:132   Avg QP:17.86  size:  8048\n","\u001b[1;36m[libx264 @ 0x559dccd2fe00] \u001b[0mframe B:390   Avg QP:22.79  size:    32\n","\u001b[1;36m[libx264 @ 0x559dccd2fe00] \u001b[0mconsecutive B-frames:  1.0%  0.0%  0.0% 99.0%\n","\u001b[1;36m[libx264 @ 0x559dccd2fe00] \u001b[0mmb I  I16..4: 10.4% 21.9% 67.7%\n","\u001b[1;36m[libx264 @ 0x559dccd2fe00] \u001b[0mmb P  I16..4:  0.4%  2.2%  5.5%  P16..4:  7.7%  2.1%  1.7%  0.0%  0.0%    skip:80.3%\n","\u001b[1;36m[libx264 @ 0x559dccd2fe00] \u001b[0mmb B  I16..4:  0.0%  0.0%  0.0%  B16..8:  1.2%  0.0%  0.0%  direct: 0.0%  skip:98.8%  L0:32.4% L1:66.6% BI: 1.0%\n","\u001b[1;36m[libx264 @ 0x559dccd2fe00] \u001b[0m8x8 transform intra:26.4% inter:49.2%\n","\u001b[1;36m[libx264 @ 0x559dccd2fe00] \u001b[0mcoded y,uvDC,uvAC intra: 94.0% 0.0% 0.0% inter: 1.9% 0.0% 0.0%\n","\u001b[1;36m[libx264 @ 0x559dccd2fe00] \u001b[0mi16 v,h,dc,p: 28% 20% 45%  7%\n","\u001b[1;36m[libx264 @ 0x559dccd2fe00] \u001b[0mi8 v,h,dc,ddl,ddr,vr,hd,vl,hu:  6% 14% 36%  6%  7%  8%  7%  6%  9%\n","\u001b[1;36m[libx264 @ 0x559dccd2fe00] \u001b[0mi4 v,h,dc,ddl,ddr,vr,hd,vl,hu: 16% 23% 19%  7%  7%  6%  9%  5%  9%\n","\u001b[1;36m[libx264 @ 0x559dccd2fe00] \u001b[0mi8c dc,h,v,p: 100%  0%  0%  0%\n","\u001b[1;36m[libx264 @ 0x559dccd2fe00] \u001b[0mWeighted P-Frames: Y:3.8% UV:0.0%\n","\u001b[1;36m[libx264 @ 0x559dccd2fe00] \u001b[0mref P L0: 58.8% 17.2% 22.6%  1.4%  0.0%\n","\u001b[1;36m[libx264 @ 0x559dccd2fe00] \u001b[0mref B L0: 92.1%  7.0%  0.9%\n","\u001b[1;36m[libx264 @ 0x559dccd2fe00] \u001b[0mref B L1: 90.4%  9.6%\n","\u001b[1;36m[libx264 @ 0x559dccd2fe00] \u001b[0mkb/s:491.08\n","ffmpeg version 3.4.8-0ubuntu0.2 Copyright (c) 2000-2020 the FFmpeg developers\n","  built with gcc 7 (Ubuntu 7.5.0-3ubuntu1~18.04)\n","  configuration: --prefix=/usr --extra-version=0ubuntu0.2 --toolchain=hardened --libdir=/usr/lib/x86_64-linux-gnu --incdir=/usr/include/x86_64-linux-gnu --enable-gpl --disable-stripping --enable-avresample --enable-avisynth --enable-gnutls --enable-ladspa --enable-libass --enable-libbluray --enable-libbs2b --enable-libcaca --enable-libcdio --enable-libflite --enable-libfontconfig --enable-libfreetype --enable-libfribidi --enable-libgme --enable-libgsm --enable-libmp3lame --enable-libmysofa --enable-libopenjpeg --enable-libopenmpt --enable-libopus --enable-libpulse --enable-librubberband --enable-librsvg --enable-libshine --enable-libsnappy --enable-libsoxr --enable-libspeex --enable-libssh --enable-libtheora --enable-libtwolame --enable-libvorbis --enable-libvpx --enable-libwavpack --enable-libwebp --enable-libx265 --enable-libxml2 --enable-libxvid --enable-libzmq --enable-libzvbi --enable-omx --enable-openal --enable-opengl --enable-sdl2 --enable-libdc1394 --enable-libdrm --enable-libiec61883 --enable-chromaprint --enable-frei0r --enable-libopencv --enable-libx264 --enable-shared\n","  libavutil      55. 78.100 / 55. 78.100\n","  libavcodec     57.107.100 / 57.107.100\n","  libavformat    57. 83.100 / 57. 83.100\n","  libavdevice    57. 10.100 / 57. 10.100\n","  libavfilter     6.107.100 /  6.107.100\n","  libavresample   3.  7.  0 /  3.  7.  0\n","  libswscale      4.  8.100 /  4.  8.100\n","  libswresample   2.  9.100 /  2.  9.100\n","  libpostproc    54.  7.100 / 54.  7.100\n","Input #0, image2, from '/content/doom_data/episode_9/%01d.png':\n","  Duration: 00:00:01.28, start: 0.000000, bitrate: N/A\n","    Stream #0:0: Video: png, gray(pc), 640x480, 25 fps, 25 tbr, 25 tbn, 25 tbc\n","Stream mapping:\n","  Stream #0:0 -> #0:0 (png (native) -> h264 (libx264))\n","Press [q] to stop, [?] for help\n","\u001b[1;36m[libx264 @ 0x55a3663b7e00] \u001b[0musing cpu capabilities: MMX2 SSE2Fast SSSE3 SSE4.2 AVX FMA3 BMI2 AVX2\n","\u001b[1;36m[libx264 @ 0x55a3663b7e00] \u001b[0mprofile High, level 3.0\n","\u001b[1;36m[libx264 @ 0x55a3663b7e00] \u001b[0m264 - core 152 r2854 e9a5903 - H.264/MPEG-4 AVC codec - Copyleft 2003-2017 - http://www.videolan.org/x264.html - options: cabac=1 ref=3 deblock=1:0:0 analyse=0x3:0x113 me=hex subme=7 psy=1 psy_rd=1.00:0.00 mixed_ref=1 me_range=16 chroma_me=1 trellis=1 8x8dct=1 cqm=0 deadzone=21,11 fast_pskip=1 chroma_qp_offset=-2 threads=3 lookahead_threads=1 sliced_threads=0 nr=0 decimate=1 interlaced=0 bluray_compat=0 constrained_intra=0 bframes=3 b_pyramid=2 b_adapt=1 b_bias=0 direct=1 weightb=1 open_gop=0 weightp=2 keyint=250 keyint_min=25 scenecut=40 intra_refresh=0 rc_lookahead=40 rc=crf mbtree=1 crf=23.0 qcomp=0.60 qpmin=0 qpmax=69 qpstep=4 ip_ratio=1.40 aq=1:1.00\n","Output #0, mp4, to '/content/doom_videos/episode_9.mp4':\n","  Metadata:\n","    encoder         : Lavf57.83.100\n","    Stream #0:0: Video: h264 (libx264) (avc1 / 0x31637661), yuv420p, 640x480, q=-1--1, 25 fps, 12800 tbn, 25 tbc\n","    Metadata:\n","      encoder         : Lavc57.107.100 libx264\n","    Side data:\n","      cpb: bitrate max/min/avg: 0/0/0 buffer size: 0 vbv_delay: -1\n","frame=  560 fps=111 q=-1.0 Lsize=    1115kB time=00:00:22.28 bitrate= 410.0kbits/s speed=4.41x    \n","video:1108kB audio:0kB subtitle:0kB other streams:0kB global headers:0kB muxing overhead: 0.667541%\n","\u001b[1;36m[libx264 @ 0x55a3663b7e00] \u001b[0mframe I:3     Avg QP:16.49  size: 73461\n","\u001b[1;36m[libx264 @ 0x55a3663b7e00] \u001b[0mframe P:140   Avg QP:16.23  size:  6427\n","\u001b[1;36m[libx264 @ 0x55a3663b7e00] \u001b[0mframe B:417   Avg QP:24.10  size:    32\n","\u001b[1;36m[libx264 @ 0x55a3663b7e00] \u001b[0mconsecutive B-frames:  0.7%  0.0%  0.0% 99.3%\n","\u001b[1;36m[libx264 @ 0x55a3663b7e00] \u001b[0mmb I  I16..4: 10.2% 22.8% 67.0%\n","\u001b[1;36m[libx264 @ 0x55a3663b7e00] \u001b[0mmb P  I16..4:  0.2%  1.1%  3.4%  P16..4:  7.9%  2.9%  2.6%  0.0%  0.0%    skip:82.0%\n","\u001b[1;36m[libx264 @ 0x55a3663b7e00] \u001b[0mmb B  I16..4:  0.0%  0.0%  0.0%  B16..8:  1.2%  0.0%  0.0%  direct: 0.0%  skip:98.8%  L0:28.9% L1:70.6% BI: 0.5%\n","\u001b[1;36m[libx264 @ 0x55a3663b7e00] \u001b[0m8x8 transform intra:23.7% inter:40.4%\n","\u001b[1;36m[libx264 @ 0x55a3663b7e00] \u001b[0mcoded y,uvDC,uvAC intra: 93.9% 0.0% 0.0% inter: 2.3% 0.0% 0.0%\n","\u001b[1;36m[libx264 @ 0x55a3663b7e00] \u001b[0mi16 v,h,dc,p: 28% 18% 47%  8%\n","\u001b[1;36m[libx264 @ 0x55a3663b7e00] \u001b[0mi8 v,h,dc,ddl,ddr,vr,hd,vl,hu:  7% 16% 38%  5%  6%  7%  7%  5%  9%\n","\u001b[1;36m[libx264 @ 0x55a3663b7e00] \u001b[0mi4 v,h,dc,ddl,ddr,vr,hd,vl,hu: 17% 24% 19%  6%  7%  5%  9%  4%  9%\n","\u001b[1;36m[libx264 @ 0x55a3663b7e00] \u001b[0mi8c dc,h,v,p: 100%  0%  0%  0%\n","\u001b[1;36m[libx264 @ 0x55a3663b7e00] \u001b[0mWeighted P-Frames: Y:3.6% UV:0.0%\n","\u001b[1;36m[libx264 @ 0x55a3663b7e00] \u001b[0mref P L0: 69.9% 12.7% 16.3%  1.2%  0.0%\n","\u001b[1;36m[libx264 @ 0x55a3663b7e00] \u001b[0mref B L0: 91.6%  7.7%  0.7%\n","\u001b[1;36m[libx264 @ 0x55a3663b7e00] \u001b[0mref B L1: 89.0% 11.0%\n","\u001b[1;36m[libx264 @ 0x55a3663b7e00] \u001b[0mkb/s:404.81\n","ffmpeg version 3.4.8-0ubuntu0.2 Copyright (c) 2000-2020 the FFmpeg developers\n","  built with gcc 7 (Ubuntu 7.5.0-3ubuntu1~18.04)\n","  configuration: --prefix=/usr --extra-version=0ubuntu0.2 --toolchain=hardened --libdir=/usr/lib/x86_64-linux-gnu --incdir=/usr/include/x86_64-linux-gnu --enable-gpl --disable-stripping --enable-avresample --enable-avisynth --enable-gnutls --enable-ladspa --enable-libass --enable-libbluray --enable-libbs2b --enable-libcaca --enable-libcdio --enable-libflite --enable-libfontconfig --enable-libfreetype --enable-libfribidi --enable-libgme --enable-libgsm --enable-libmp3lame --enable-libmysofa --enable-libopenjpeg --enable-libopenmpt --enable-libopus --enable-libpulse --enable-librubberband --enable-librsvg --enable-libshine --enable-libsnappy --enable-libsoxr --enable-libspeex --enable-libssh --enable-libtheora --enable-libtwolame --enable-libvorbis --enable-libvpx --enable-libwavpack --enable-libwebp --enable-libx265 --enable-libxml2 --enable-libxvid --enable-libzmq --enable-libzvbi --enable-omx --enable-openal --enable-opengl --enable-sdl2 --enable-libdc1394 --enable-libdrm --enable-libiec61883 --enable-chromaprint --enable-frei0r --enable-libopencv --enable-libx264 --enable-shared\n","  libavutil      55. 78.100 / 55. 78.100\n","  libavcodec     57.107.100 / 57.107.100\n","  libavformat    57. 83.100 / 57. 83.100\n","  libavdevice    57. 10.100 / 57. 10.100\n","  libavfilter     6.107.100 /  6.107.100\n","  libavresample   3.  7.  0 /  3.  7.  0\n","  libswscale      4.  8.100 /  4.  8.100\n","  libswresample   2.  9.100 /  2.  9.100\n","  libpostproc    54.  7.100 / 54.  7.100\n","Input #0, image2, from '/content/doom_data/episode_7/%01d.png':\n","  Duration: 00:00:01.56, start: 0.000000, bitrate: N/A\n","    Stream #0:0: Video: png, gray(pc), 640x480, 25 fps, 25 tbr, 25 tbn, 25 tbc\n","Stream mapping:\n","  Stream #0:0 -> #0:0 (png (native) -> h264 (libx264))\n","Press [q] to stop, [?] for help\n","\u001b[1;36m[libx264 @ 0x561019973e00] \u001b[0musing cpu capabilities: MMX2 SSE2Fast SSSE3 SSE4.2 AVX FMA3 BMI2 AVX2\n","\u001b[1;36m[libx264 @ 0x561019973e00] \u001b[0mprofile High, level 3.0\n","\u001b[1;36m[libx264 @ 0x561019973e00] \u001b[0m264 - core 152 r2854 e9a5903 - H.264/MPEG-4 AVC codec - Copyleft 2003-2017 - http://www.videolan.org/x264.html - options: cabac=1 ref=3 deblock=1:0:0 analyse=0x3:0x113 me=hex subme=7 psy=1 psy_rd=1.00:0.00 mixed_ref=1 me_range=16 chroma_me=1 trellis=1 8x8dct=1 cqm=0 deadzone=21,11 fast_pskip=1 chroma_qp_offset=-2 threads=3 lookahead_threads=1 sliced_threads=0 nr=0 decimate=1 interlaced=0 bluray_compat=0 constrained_intra=0 bframes=3 b_pyramid=2 b_adapt=1 b_bias=0 direct=1 weightb=1 open_gop=0 weightp=2 keyint=250 keyint_min=25 scenecut=40 intra_refresh=0 rc_lookahead=40 rc=crf mbtree=1 crf=23.0 qcomp=0.60 qpmin=0 qpmax=69 qpstep=4 ip_ratio=1.40 aq=1:1.00\n","Output #0, mp4, to '/content/doom_videos/episode_7.mp4':\n","  Metadata:\n","    encoder         : Lavf57.83.100\n","    Stream #0:0: Video: h264 (libx264) (avc1 / 0x31637661), yuv420p, 640x480, q=-1--1, 25 fps, 12800 tbn, 25 tbc\n","    Metadata:\n","      encoder         : Lavc57.107.100 libx264\n","    Side data:\n","      cpb: bitrate max/min/avg: 0/0/0 buffer size: 0 vbv_delay: -1\n","frame=  683 fps=109 q=-1.0 Lsize=    1427kB time=00:00:27.20 bitrate= 429.7kbits/s speed=4.34x    \n","video:1418kB audio:0kB subtitle:0kB other streams:0kB global headers:0kB muxing overhead: 0.622515%\n","\u001b[1;36m[libx264 @ 0x561019973e00] \u001b[0mframe I:3     Avg QP:16.85  size: 70240\n","\u001b[1;36m[libx264 @ 0x561019973e00] \u001b[0mframe P:172   Avg QP:16.13  size:  7120\n","\u001b[1;36m[libx264 @ 0x561019973e00] \u001b[0mframe B:508   Avg QP:20.89  size:    31\n","\u001b[1;36m[libx264 @ 0x561019973e00] \u001b[0mconsecutive B-frames:  0.7%  0.3%  0.0% 99.0%\n","\u001b[1;36m[libx264 @ 0x561019973e00] \u001b[0mmb I  I16..4: 10.2% 15.9% 73.8%\n","\u001b[1;36m[libx264 @ 0x561019973e00] \u001b[0mmb P  I16..4:  0.2%  1.7%  4.3%  P16..4:  6.4%  2.4%  1.9%  0.0%  0.0%    skip:83.0%\n","\u001b[1;36m[libx264 @ 0x561019973e00] \u001b[0mmb B  I16..4:  0.0%  0.0%  0.0%  B16..8:  1.1%  0.0%  0.0%  direct: 0.0%  skip:98.9%  L0:35.0% L1:64.3% BI: 0.7%\n","\u001b[1;36m[libx264 @ 0x561019973e00] \u001b[0m8x8 transform intra:25.0% inter:44.9%\n","\u001b[1;36m[libx264 @ 0x561019973e00] \u001b[0mcoded y,uvDC,uvAC intra: 94.7% 0.0% 0.0% inter: 1.9% 0.0% 0.0%\n","\u001b[1;36m[libx264 @ 0x561019973e00] \u001b[0mi16 v,h,dc,p: 23% 18% 50%  9%\n","\u001b[1;36m[libx264 @ 0x561019973e00] \u001b[0mi8 v,h,dc,ddl,ddr,vr,hd,vl,hu:  8% 13% 38%  6%  7%  7%  7%  5%  9%\n","\u001b[1;36m[libx264 @ 0x561019973e00] \u001b[0mi4 v,h,dc,ddl,ddr,vr,hd,vl,hu: 17% 23% 18%  6%  7%  5%  9%  5%  9%\n","\u001b[1;36m[libx264 @ 0x561019973e00] \u001b[0mi8c dc,h,v,p: 100%  0%  0%  0%\n","\u001b[1;36m[libx264 @ 0x561019973e00] \u001b[0mWeighted P-Frames: Y:1.7% UV:0.0%\n","\u001b[1;36m[libx264 @ 0x561019973e00] \u001b[0mref P L0: 66.4% 15.3% 16.7%  1.6%  0.0%\n","\u001b[1;36m[libx264 @ 0x561019973e00] \u001b[0mref B L0: 91.0%  8.6%  0.4%\n","\u001b[1;36m[libx264 @ 0x561019973e00] \u001b[0mref B L1: 90.6%  9.4%\n","\u001b[1;36m[libx264 @ 0x561019973e00] \u001b[0mkb/s:424.99\n","ffmpeg version 3.4.8-0ubuntu0.2 Copyright (c) 2000-2020 the FFmpeg developers\n","  built with gcc 7 (Ubuntu 7.5.0-3ubuntu1~18.04)\n","  configuration: --prefix=/usr --extra-version=0ubuntu0.2 --toolchain=hardened --libdir=/usr/lib/x86_64-linux-gnu --incdir=/usr/include/x86_64-linux-gnu --enable-gpl --disable-stripping --enable-avresample --enable-avisynth --enable-gnutls --enable-ladspa --enable-libass --enable-libbluray --enable-libbs2b --enable-libcaca --enable-libcdio --enable-libflite --enable-libfontconfig --enable-libfreetype --enable-libfribidi --enable-libgme --enable-libgsm --enable-libmp3lame --enable-libmysofa --enable-libopenjpeg --enable-libopenmpt --enable-libopus --enable-libpulse --enable-librubberband --enable-librsvg --enable-libshine --enable-libsnappy --enable-libsoxr --enable-libspeex --enable-libssh --enable-libtheora --enable-libtwolame --enable-libvorbis --enable-libvpx --enable-libwavpack --enable-libwebp --enable-libx265 --enable-libxml2 --enable-libxvid --enable-libzmq --enable-libzvbi --enable-omx --enable-openal --enable-opengl --enable-sdl2 --enable-libdc1394 --enable-libdrm --enable-libiec61883 --enable-chromaprint --enable-frei0r --enable-libopencv --enable-libx264 --enable-shared\n","  libavutil      55. 78.100 / 55. 78.100\n","  libavcodec     57.107.100 / 57.107.100\n","  libavformat    57. 83.100 / 57. 83.100\n","  libavdevice    57. 10.100 / 57. 10.100\n","  libavfilter     6.107.100 /  6.107.100\n","  libavresample   3.  7.  0 /  3.  7.  0\n","  libswscale      4.  8.100 /  4.  8.100\n","  libswresample   2.  9.100 /  2.  9.100\n","  libpostproc    54.  7.100 / 54.  7.100\n","Input #0, image2, from '/content/doom_data/episode_8/%01d.png':\n","  Duration: 00:00:01.60, start: 0.000000, bitrate: N/A\n","    Stream #0:0: Video: png, gray(pc), 640x480, 25 fps, 25 tbr, 25 tbn, 25 tbc\n","Stream mapping:\n","  Stream #0:0 -> #0:0 (png (native) -> h264 (libx264))\n","Press [q] to stop, [?] for help\n","\u001b[1;36m[libx264 @ 0x55a1c08a9e00] \u001b[0musing cpu capabilities: MMX2 SSE2Fast SSSE3 SSE4.2 AVX FMA3 BMI2 AVX2\n","\u001b[1;36m[libx264 @ 0x55a1c08a9e00] \u001b[0mprofile High, level 3.0\n","\u001b[1;36m[libx264 @ 0x55a1c08a9e00] \u001b[0m264 - core 152 r2854 e9a5903 - H.264/MPEG-4 AVC codec - Copyleft 2003-2017 - http://www.videolan.org/x264.html - options: cabac=1 ref=3 deblock=1:0:0 analyse=0x3:0x113 me=hex subme=7 psy=1 psy_rd=1.00:0.00 mixed_ref=1 me_range=16 chroma_me=1 trellis=1 8x8dct=1 cqm=0 deadzone=21,11 fast_pskip=1 chroma_qp_offset=-2 threads=3 lookahead_threads=1 sliced_threads=0 nr=0 decimate=1 interlaced=0 bluray_compat=0 constrained_intra=0 bframes=3 b_pyramid=2 b_adapt=1 b_bias=0 direct=1 weightb=1 open_gop=0 weightp=2 keyint=250 keyint_min=25 scenecut=40 intra_refresh=0 rc_lookahead=40 rc=crf mbtree=1 crf=23.0 qcomp=0.60 qpmin=0 qpmax=69 qpstep=4 ip_ratio=1.40 aq=1:1.00\n","Output #0, mp4, to '/content/doom_videos/episode_8.mp4':\n","  Metadata:\n","    encoder         : Lavf57.83.100\n","    Stream #0:0: Video: h264 (libx264) (avc1 / 0x31637661), yuv420p, 640x480, q=-1--1, 25 fps, 12800 tbn, 25 tbc\n","    Metadata:\n","      encoder         : Lavc57.107.100 libx264\n","    Side data:\n","      cpb: bitrate max/min/avg: 0/0/0 buffer size: 0 vbv_delay: -1\n","frame=  700 fps=108 q=-1.0 Lsize=    1546kB time=00:00:27.88 bitrate= 454.2kbits/s speed=4.32x    \n","video:1537kB audio:0kB subtitle:0kB other streams:0kB global headers:0kB muxing overhead: 0.587612%\n","\u001b[1;36m[libx264 @ 0x55a1c08a9e00] \u001b[0mframe I:4     Avg QP:16.64  size: 76203\n","\u001b[1;36m[libx264 @ 0x55a1c08a9e00] \u001b[0mframe P:176   Avg QP:16.58  size:  7115\n","\u001b[1;36m[libx264 @ 0x55a1c08a9e00] \u001b[0mframe B:520   Avg QP:21.02  size:    31\n","\u001b[1;36m[libx264 @ 0x55a1c08a9e00] \u001b[0mconsecutive B-frames:  0.9%  0.3%  0.0% 98.9%\n","\u001b[1;36m[libx264 @ 0x55a1c08a9e00] \u001b[0mmb I  I16..4: 10.8% 23.2% 66.0%\n","\u001b[1;36m[libx264 @ 0x55a1c08a9e00] \u001b[0mmb P  I16..4:  0.3%  1.6%  4.4%  P16..4:  6.0%  2.7%  2.3%  0.0%  0.0%    skip:82.7%\n","\u001b[1;36m[libx264 @ 0x55a1c08a9e00] \u001b[0mmb B  I16..4:  0.0%  0.0%  0.0%  B16..8:  1.0%  0.0%  0.0%  direct: 0.0%  skip:99.0%  L0:34.6% L1:64.8% BI: 0.6%\n","\u001b[1;36m[libx264 @ 0x55a1c08a9e00] \u001b[0m8x8 transform intra:25.1% inter:39.7%\n","\u001b[1;36m[libx264 @ 0x55a1c08a9e00] \u001b[0mcoded y,uvDC,uvAC intra: 94.3% 0.0% 0.0% inter: 1.9% 0.0% 0.0%\n","\u001b[1;36m[libx264 @ 0x55a1c08a9e00] \u001b[0mi16 v,h,dc,p: 25% 19% 47%  9%\n","\u001b[1;36m[libx264 @ 0x55a1c08a9e00] \u001b[0mi8 v,h,dc,ddl,ddr,vr,hd,vl,hu:  5% 14% 39%  5%  7%  7%  8%  5% 10%\n","\u001b[1;36m[libx264 @ 0x55a1c08a9e00] \u001b[0mi4 v,h,dc,ddl,ddr,vr,hd,vl,hu: 16% 24% 19%  6%  7%  5%  9%  4% 10%\n","\u001b[1;36m[libx264 @ 0x55a1c08a9e00] \u001b[0mi8c dc,h,v,p: 100%  0%  0%  0%\n","\u001b[1;36m[libx264 @ 0x55a1c08a9e00] \u001b[0mWeighted P-Frames: Y:2.3% UV:0.0%\n","\u001b[1;36m[libx264 @ 0x55a1c08a9e00] \u001b[0mref P L0: 70.6% 13.1% 15.2%  1.2%\n","\u001b[1;36m[libx264 @ 0x55a1c08a9e00] \u001b[0mref B L0: 90.9%  8.6%  0.4%\n","\u001b[1;36m[libx264 @ 0x55a1c08a9e00] \u001b[0mref B L1: 91.3%  8.7%\n","\u001b[1;36m[libx264 @ 0x55a1c08a9e00] \u001b[0mkb/s:449.42\n","ffmpeg version 3.4.8-0ubuntu0.2 Copyright (c) 2000-2020 the FFmpeg developers\n","  built with gcc 7 (Ubuntu 7.5.0-3ubuntu1~18.04)\n","  configuration: --prefix=/usr --extra-version=0ubuntu0.2 --toolchain=hardened --libdir=/usr/lib/x86_64-linux-gnu --incdir=/usr/include/x86_64-linux-gnu --enable-gpl --disable-stripping --enable-avresample --enable-avisynth --enable-gnutls --enable-ladspa --enable-libass --enable-libbluray --enable-libbs2b --enable-libcaca --enable-libcdio --enable-libflite --enable-libfontconfig --enable-libfreetype --enable-libfribidi --enable-libgme --enable-libgsm --enable-libmp3lame --enable-libmysofa --enable-libopenjpeg --enable-libopenmpt --enable-libopus --enable-libpulse --enable-librubberband --enable-librsvg --enable-libshine --enable-libsnappy --enable-libsoxr --enable-libspeex --enable-libssh --enable-libtheora --enable-libtwolame --enable-libvorbis --enable-libvpx --enable-libwavpack --enable-libwebp --enable-libx265 --enable-libxml2 --enable-libxvid --enable-libzmq --enable-libzvbi --enable-omx --enable-openal --enable-opengl --enable-sdl2 --enable-libdc1394 --enable-libdrm --enable-libiec61883 --enable-chromaprint --enable-frei0r --enable-libopencv --enable-libx264 --enable-shared\n","  libavutil      55. 78.100 / 55. 78.100\n","  libavcodec     57.107.100 / 57.107.100\n","  libavformat    57. 83.100 / 57. 83.100\n","  libavdevice    57. 10.100 / 57. 10.100\n","  libavfilter     6.107.100 /  6.107.100\n","  libavresample   3.  7.  0 /  3.  7.  0\n","  libswscale      4.  8.100 /  4.  8.100\n","  libswresample   2.  9.100 /  2.  9.100\n","  libpostproc    54.  7.100 / 54.  7.100\n","Input #0, image2, from '/content/doom_data/episode_4/%01d.png':\n","  Duration: 00:00:00.96, start: 0.000000, bitrate: N/A\n","    Stream #0:0: Video: png, gray(pc), 640x480, 25 fps, 25 tbr, 25 tbn, 25 tbc\n","Stream mapping:\n","  Stream #0:0 -> #0:0 (png (native) -> h264 (libx264))\n","Press [q] to stop, [?] for help\n","\u001b[1;36m[libx264 @ 0x5556d58c1e00] \u001b[0musing cpu capabilities: MMX2 SSE2Fast SSSE3 SSE4.2 AVX FMA3 BMI2 AVX2\n","\u001b[1;36m[libx264 @ 0x5556d58c1e00] \u001b[0mprofile High, level 3.0\n","\u001b[1;36m[libx264 @ 0x5556d58c1e00] \u001b[0m264 - core 152 r2854 e9a5903 - H.264/MPEG-4 AVC codec - Copyleft 2003-2017 - http://www.videolan.org/x264.html - options: cabac=1 ref=3 deblock=1:0:0 analyse=0x3:0x113 me=hex subme=7 psy=1 psy_rd=1.00:0.00 mixed_ref=1 me_range=16 chroma_me=1 trellis=1 8x8dct=1 cqm=0 deadzone=21,11 fast_pskip=1 chroma_qp_offset=-2 threads=3 lookahead_threads=1 sliced_threads=0 nr=0 decimate=1 interlaced=0 bluray_compat=0 constrained_intra=0 bframes=3 b_pyramid=2 b_adapt=1 b_bias=0 direct=1 weightb=1 open_gop=0 weightp=2 keyint=250 keyint_min=25 scenecut=40 intra_refresh=0 rc_lookahead=40 rc=crf mbtree=1 crf=23.0 qcomp=0.60 qpmin=0 qpmax=69 qpstep=4 ip_ratio=1.40 aq=1:1.00\n","Output #0, mp4, to '/content/doom_videos/episode_4.mp4':\n","  Metadata:\n","    encoder         : Lavf57.83.100\n","    Stream #0:0: Video: h264 (libx264) (avc1 / 0x31637661), yuv420p, 640x480, q=-1--1, 25 fps, 12800 tbn, 25 tbc\n","    Metadata:\n","      encoder         : Lavc57.107.100 libx264\n","    Side data:\n","      cpb: bitrate max/min/avg: 0/0/0 buffer size: 0 vbv_delay: -1\n","frame=  420 fps=109 q=-1.0 Lsize=     874kB time=00:00:16.68 bitrate= 429.4kbits/s speed=4.33x    \n","video:869kB audio:0kB subtitle:0kB other streams:0kB global headers:0kB muxing overhead: 0.659211%\n","\u001b[1;36m[libx264 @ 0x5556d58c1e00] \u001b[0mframe I:2     Avg QP:17.35  size: 69980\n","\u001b[1;36m[libx264 @ 0x5556d58c1e00] \u001b[0mframe P:105   Avg QP:16.70  size:  7039\n","\u001b[1;36m[libx264 @ 0x5556d58c1e00] \u001b[0mframe B:313   Avg QP:21.32  size:    31\n","\u001b[1;36m[libx264 @ 0x5556d58c1e00] \u001b[0mconsecutive B-frames:  0.5%  0.0%  1.4% 98.1%\n","\u001b[1;36m[libx264 @ 0x5556d58c1e00] \u001b[0mmb I  I16..4: 11.3% 25.2% 63.5%\n","\u001b[1;36m[libx264 @ 0x5556d58c1e00] \u001b[0mmb P  I16..4:  0.3%  1.9%  4.7%  P16..4:  9.1%  1.9%  1.6%  0.0%  0.0%    skip:80.4%\n","\u001b[1;36m[libx264 @ 0x5556d58c1e00] \u001b[0mmb B  I16..4:  0.0%  0.0%  0.0%  B16..8:  1.0%  0.0%  0.0%  direct: 0.0%  skip:99.0%  L0:40.0% L1:58.4% BI: 1.5%\n","\u001b[1;36m[libx264 @ 0x5556d58c1e00] \u001b[0m8x8 transform intra:27.0% inter:52.6%\n","\u001b[1;36m[libx264 @ 0x5556d58c1e00] \u001b[0mcoded y,uvDC,uvAC intra: 93.3% 0.0% 0.0% inter: 2.0% 0.0% 0.0%\n","\u001b[1;36m[libx264 @ 0x5556d58c1e00] \u001b[0mi16 v,h,dc,p: 29% 20% 45%  6%\n","\u001b[1;36m[libx264 @ 0x5556d58c1e00] \u001b[0mi8 v,h,dc,ddl,ddr,vr,hd,vl,hu:  6% 14% 36%  6%  7%  8%  8%  6%  9%\n","\u001b[1;36m[libx264 @ 0x5556d58c1e00] \u001b[0mi4 v,h,dc,ddl,ddr,vr,hd,vl,hu: 16% 24% 19%  6%  7%  5% 10%  5%  9%\n","\u001b[1;36m[libx264 @ 0x5556d58c1e00] \u001b[0mi8c dc,h,v,p: 100%  0%  0%  0%\n","\u001b[1;36m[libx264 @ 0x5556d58c1e00] \u001b[0mWeighted P-Frames: Y:5.7% UV:0.0%\n","\u001b[1;36m[libx264 @ 0x5556d58c1e00] \u001b[0mref P L0: 54.5% 17.2% 26.8%  1.4%  0.0%\n","\u001b[1;36m[libx264 @ 0x5556d58c1e00] \u001b[0mref B L0: 90.8%  8.6%  0.6%\n","\u001b[1;36m[libx264 @ 0x5556d58c1e00] \u001b[0mref B L1: 92.2%  7.8%\n","\u001b[1;36m[libx264 @ 0x5556d58c1e00] \u001b[0mkb/s:423.19\n","ffmpeg version 3.4.8-0ubuntu0.2 Copyright (c) 2000-2020 the FFmpeg developers\n","  built with gcc 7 (Ubuntu 7.5.0-3ubuntu1~18.04)\n","  configuration: --prefix=/usr --extra-version=0ubuntu0.2 --toolchain=hardened --libdir=/usr/lib/x86_64-linux-gnu --incdir=/usr/include/x86_64-linux-gnu --enable-gpl --disable-stripping --enable-avresample --enable-avisynth --enable-gnutls --enable-ladspa --enable-libass --enable-libbluray --enable-libbs2b --enable-libcaca --enable-libcdio --enable-libflite --enable-libfontconfig --enable-libfreetype --enable-libfribidi --enable-libgme --enable-libgsm --enable-libmp3lame --enable-libmysofa --enable-libopenjpeg --enable-libopenmpt --enable-libopus --enable-libpulse --enable-librubberband --enable-librsvg --enable-libshine --enable-libsnappy --enable-libsoxr --enable-libspeex --enable-libssh --enable-libtheora --enable-libtwolame --enable-libvorbis --enable-libvpx --enable-libwavpack --enable-libwebp --enable-libx265 --enable-libxml2 --enable-libxvid --enable-libzmq --enable-libzvbi --enable-omx --enable-openal --enable-opengl --enable-sdl2 --enable-libdc1394 --enable-libdrm --enable-libiec61883 --enable-chromaprint --enable-frei0r --enable-libopencv --enable-libx264 --enable-shared\n","  libavutil      55. 78.100 / 55. 78.100\n","  libavcodec     57.107.100 / 57.107.100\n","  libavformat    57. 83.100 / 57. 83.100\n","  libavdevice    57. 10.100 / 57. 10.100\n","  libavfilter     6.107.100 /  6.107.100\n","  libavresample   3.  7.  0 /  3.  7.  0\n","  libswscale      4.  8.100 /  4.  8.100\n","  libswresample   2.  9.100 /  2.  9.100\n","  libpostproc    54.  7.100 / 54.  7.100\n","Input #0, image2, from '/content/doom_data/episode_0/%01d.png':\n","  Duration: 00:00:01.08, start: 0.000000, bitrate: N/A\n","    Stream #0:0: Video: png, gray(pc), 640x480, 25 fps, 25 tbr, 25 tbn, 25 tbc\n","Stream mapping:\n","  Stream #0:0 -> #0:0 (png (native) -> h264 (libx264))\n","Press [q] to stop, [?] for help\n","\u001b[1;36m[libx264 @ 0x5585e26ede00] \u001b[0musing cpu capabilities: MMX2 SSE2Fast SSSE3 SSE4.2 AVX FMA3 BMI2 AVX2\n","\u001b[1;36m[libx264 @ 0x5585e26ede00] \u001b[0mprofile High, level 3.0\n","\u001b[1;36m[libx264 @ 0x5585e26ede00] \u001b[0m264 - core 152 r2854 e9a5903 - H.264/MPEG-4 AVC codec - Copyleft 2003-2017 - http://www.videolan.org/x264.html - options: cabac=1 ref=3 deblock=1:0:0 analyse=0x3:0x113 me=hex subme=7 psy=1 psy_rd=1.00:0.00 mixed_ref=1 me_range=16 chroma_me=1 trellis=1 8x8dct=1 cqm=0 deadzone=21,11 fast_pskip=1 chroma_qp_offset=-2 threads=3 lookahead_threads=1 sliced_threads=0 nr=0 decimate=1 interlaced=0 bluray_compat=0 constrained_intra=0 bframes=3 b_pyramid=2 b_adapt=1 b_bias=0 direct=1 weightb=1 open_gop=0 weightp=2 keyint=250 keyint_min=25 scenecut=40 intra_refresh=0 rc_lookahead=40 rc=crf mbtree=1 crf=23.0 qcomp=0.60 qpmin=0 qpmax=69 qpstep=4 ip_ratio=1.40 aq=1:1.00\n","Output #0, mp4, to '/content/doom_videos/episode_0.mp4':\n","  Metadata:\n","    encoder         : Lavf57.83.100\n","    Stream #0:0: Video: h264 (libx264) (avc1 / 0x31637661), yuv420p, 640x480, q=-1--1, 25 fps, 12800 tbn, 25 tbc\n","    Metadata:\n","      encoder         : Lavc57.107.100 libx264\n","    Side data:\n","      cpb: bitrate max/min/avg: 0/0/0 buffer size: 0 vbv_delay: -1\n","frame=  473 fps=106 q=-1.0 Lsize=    1038kB time=00:00:18.80 bitrate= 452.4kbits/s speed=4.22x    \n","video:1032kB audio:0kB subtitle:0kB other streams:0kB global headers:0kB muxing overhead: 0.617410%\n","\u001b[1;36m[libx264 @ 0x5585e26ede00] \u001b[0mframe I:2     Avg QP:17.57  size: 65410\n","\u001b[1;36m[libx264 @ 0x5585e26ede00] \u001b[0mframe P:118   Avg QP:17.00  size:  7744\n","\u001b[1;36m[libx264 @ 0x5585e26ede00] \u001b[0mframe B:353   Avg QP:23.56  size:    32\n","\u001b[1;36m[libx264 @ 0x5585e26ede00] \u001b[0mconsecutive B-frames:  0.4%  0.0%  0.6% 98.9%\n","\u001b[1;36m[libx264 @ 0x5585e26ede00] \u001b[0mmb I  I16..4: 11.3% 26.4% 62.3%\n","\u001b[1;36m[libx264 @ 0x5585e26ede00] \u001b[0mmb P  I16..4:  0.3%  2.1%  4.6%  P16..4:  7.9%  2.5%  2.1%  0.0%  0.0%    skip:80.6%\n","\u001b[1;36m[libx264 @ 0x5585e26ede00] \u001b[0mmb B  I16..4:  0.0%  0.0%  0.0%  B16..8:  1.2%  0.0%  0.0%  direct: 0.0%  skip:98.8%  L0:31.5% L1:67.5% BI: 1.0%\n","\u001b[1;36m[libx264 @ 0x5585e26ede00] \u001b[0m8x8 transform intra:29.1% inter:45.1%\n","\u001b[1;36m[libx264 @ 0x5585e26ede00] \u001b[0mcoded y,uvDC,uvAC intra: 94.2% 0.0% 0.0% inter: 2.1% 0.0% 0.0%\n","\u001b[1;36m[libx264 @ 0x5585e26ede00] \u001b[0mi16 v,h,dc,p: 29% 18% 43%  9%\n","\u001b[1;36m[libx264 @ 0x5585e26ede00] \u001b[0mi8 v,h,dc,ddl,ddr,vr,hd,vl,hu:  5% 14% 36%  6%  7%  8%  7%  6% 10%\n","\u001b[1;36m[libx264 @ 0x5585e26ede00] \u001b[0mi4 v,h,dc,ddl,ddr,vr,hd,vl,hu: 16% 23% 19%  6%  7%  6%  9%  5% 10%\n","\u001b[1;36m[libx264 @ 0x5585e26ede00] \u001b[0mi8c dc,h,v,p: 100%  0%  0%  0%\n","\u001b[1;36m[libx264 @ 0x5585e26ede00] \u001b[0mWeighted P-Frames: Y:3.4% UV:0.0%\n","\u001b[1;36m[libx264 @ 0x5585e26ede00] \u001b[0mref P L0: 62.5% 15.3% 20.9%  1.3%\n","\u001b[1;36m[libx264 @ 0x5585e26ede00] \u001b[0mref B L0: 91.2%  8.1%  0.7%\n","\u001b[1;36m[libx264 @ 0x5585e26ede00] \u001b[0mref B L1: 87.9% 12.1%\n","\u001b[1;36m[libx264 @ 0x5585e26ede00] \u001b[0mkb/s:446.44\n","ffmpeg version 3.4.8-0ubuntu0.2 Copyright (c) 2000-2020 the FFmpeg developers\n","  built with gcc 7 (Ubuntu 7.5.0-3ubuntu1~18.04)\n","  configuration: --prefix=/usr --extra-version=0ubuntu0.2 --toolchain=hardened --libdir=/usr/lib/x86_64-linux-gnu --incdir=/usr/include/x86_64-linux-gnu --enable-gpl --disable-stripping --enable-avresample --enable-avisynth --enable-gnutls --enable-ladspa --enable-libass --enable-libbluray --enable-libbs2b --enable-libcaca --enable-libcdio --enable-libflite --enable-libfontconfig --enable-libfreetype --enable-libfribidi --enable-libgme --enable-libgsm --enable-libmp3lame --enable-libmysofa --enable-libopenjpeg --enable-libopenmpt --enable-libopus --enable-libpulse --enable-librubberband --enable-librsvg --enable-libshine --enable-libsnappy --enable-libsoxr --enable-libspeex --enable-libssh --enable-libtheora --enable-libtwolame --enable-libvorbis --enable-libvpx --enable-libwavpack --enable-libwebp --enable-libx265 --enable-libxml2 --enable-libxvid --enable-libzmq --enable-libzvbi --enable-omx --enable-openal --enable-opengl --enable-sdl2 --enable-libdc1394 --enable-libdrm --enable-libiec61883 --enable-chromaprint --enable-frei0r --enable-libopencv --enable-libx264 --enable-shared\n","  libavutil      55. 78.100 / 55. 78.100\n","  libavcodec     57.107.100 / 57.107.100\n","  libavformat    57. 83.100 / 57. 83.100\n","  libavdevice    57. 10.100 / 57. 10.100\n","  libavfilter     6.107.100 /  6.107.100\n","  libavresample   3.  7.  0 /  3.  7.  0\n","  libswscale      4.  8.100 /  4.  8.100\n","  libswresample   2.  9.100 /  2.  9.100\n","  libpostproc    54.  7.100 / 54.  7.100\n","Input #0, image2, from '/content/doom_data/episode_6/%01d.png':\n","  Duration: 00:00:01.28, start: 0.000000, bitrate: N/A\n","    Stream #0:0: Video: png, gray(pc), 640x480, 25 fps, 25 tbr, 25 tbn, 25 tbc\n","Stream mapping:\n","  Stream #0:0 -> #0:0 (png (native) -> h264 (libx264))\n","Press [q] to stop, [?] for help\n","\u001b[1;36m[libx264 @ 0x55ac34d47e00] \u001b[0musing cpu capabilities: MMX2 SSE2Fast SSSE3 SSE4.2 AVX FMA3 BMI2 AVX2\n","\u001b[1;36m[libx264 @ 0x55ac34d47e00] \u001b[0mprofile High, level 3.0\n","\u001b[1;36m[libx264 @ 0x55ac34d47e00] \u001b[0m264 - core 152 r2854 e9a5903 - H.264/MPEG-4 AVC codec - Copyleft 2003-2017 - http://www.videolan.org/x264.html - options: cabac=1 ref=3 deblock=1:0:0 analyse=0x3:0x113 me=hex subme=7 psy=1 psy_rd=1.00:0.00 mixed_ref=1 me_range=16 chroma_me=1 trellis=1 8x8dct=1 cqm=0 deadzone=21,11 fast_pskip=1 chroma_qp_offset=-2 threads=3 lookahead_threads=1 sliced_threads=0 nr=0 decimate=1 interlaced=0 bluray_compat=0 constrained_intra=0 bframes=3 b_pyramid=2 b_adapt=1 b_bias=0 direct=1 weightb=1 open_gop=0 weightp=2 keyint=250 keyint_min=25 scenecut=40 intra_refresh=0 rc_lookahead=40 rc=crf mbtree=1 crf=23.0 qcomp=0.60 qpmin=0 qpmax=69 qpstep=4 ip_ratio=1.40 aq=1:1.00\n","Output #0, mp4, to '/content/doom_videos/episode_6.mp4':\n","  Metadata:\n","    encoder         : Lavf57.83.100\n","    Stream #0:0: Video: h264 (libx264) (avc1 / 0x31637661), yuv420p, 640x480, q=-1--1, 25 fps, 12800 tbn, 25 tbc\n","    Metadata:\n","      encoder         : Lavc57.107.100 libx264\n","    Side data:\n","      cpb: bitrate max/min/avg: 0/0/0 buffer size: 0 vbv_delay: -1\n","frame=  560 fps=107 q=-1.0 Lsize=    1211kB time=00:00:22.28 bitrate= 445.3kbits/s speed=4.26x    \n","video:1204kB audio:0kB subtitle:0kB other streams:0kB global headers:0kB muxing overhead: 0.613582%\n","\u001b[1;36m[libx264 @ 0x55ac34d47e00] \u001b[0mframe I:3     Avg QP:16.95  size: 73057\n","\u001b[1;36m[libx264 @ 0x55ac34d47e00] \u001b[0mframe P:141   Avg QP:16.15  size:  7092\n","\u001b[1;36m[libx264 @ 0x55ac34d47e00] \u001b[0mframe B:416   Avg QP:20.38  size:    31\n","\u001b[1;36m[libx264 @ 0x55ac34d47e00] \u001b[0mconsecutive B-frames:  0.9%  0.0%  0.5% 98.6%\n","\u001b[1;36m[libx264 @ 0x55ac34d47e00] \u001b[0mmb I  I16..4: 10.4% 21.4% 68.3%\n","\u001b[1;36m[libx264 @ 0x55ac34d47e00] \u001b[0mmb P  I16..4:  0.3%  2.0%  4.6%  P16..4:  7.5%  2.2%  1.7%  0.0%  0.0%    skip:81.7%\n","\u001b[1;36m[libx264 @ 0x55ac34d47e00] \u001b[0mmb B  I16..4:  0.0%  0.0%  0.0%  B16..8:  1.0%  0.0%  0.0%  direct: 0.0%  skip:99.0%  L0:29.7% L1:69.4% BI: 1.0%\n","\u001b[1;36m[libx264 @ 0x55ac34d47e00] \u001b[0m8x8 transform intra:27.6% inter:46.7%\n","\u001b[1;36m[libx264 @ 0x55ac34d47e00] \u001b[0mcoded y,uvDC,uvAC intra: 94.3% 0.0% 0.0% inter: 1.9% 0.0% 0.0%\n","\u001b[1;36m[libx264 @ 0x55ac34d47e00] \u001b[0mi16 v,h,dc,p: 27% 20% 45%  7%\n","\u001b[1;36m[libx264 @ 0x55ac34d47e00] \u001b[0mi8 v,h,dc,ddl,ddr,vr,hd,vl,hu:  5% 14% 38%  6%  8%  7%  7%  5%  9%\n","\u001b[1;36m[libx264 @ 0x55ac34d47e00] \u001b[0mi4 v,h,dc,ddl,ddr,vr,hd,vl,hu: 15% 23% 20%  6%  7%  5% 10%  5%  9%\n","\u001b[1;36m[libx264 @ 0x55ac34d47e00] \u001b[0mi8c dc,h,v,p: 100%  0%  0%  0%\n","\u001b[1;36m[libx264 @ 0x55ac34d47e00] \u001b[0mWeighted P-Frames: Y:3.5% UV:0.0%\n","\u001b[1;36m[libx264 @ 0x55ac34d47e00] \u001b[0mref P L0: 63.2% 14.9% 20.4%  1.5%  0.0%\n","\u001b[1;36m[libx264 @ 0x55ac34d47e00] \u001b[0mref B L0: 92.6%  6.7%  0.7%\n","\u001b[1;36m[libx264 @ 0x55ac34d47e00] \u001b[0mref B L1: 93.1%  6.9%\n","\u001b[1;36m[libx264 @ 0x55ac34d47e00] \u001b[0mkb/s:439.97\n","ffmpeg version 3.4.8-0ubuntu0.2 Copyright (c) 2000-2020 the FFmpeg developers\n","  built with gcc 7 (Ubuntu 7.5.0-3ubuntu1~18.04)\n","  configuration: --prefix=/usr --extra-version=0ubuntu0.2 --toolchain=hardened --libdir=/usr/lib/x86_64-linux-gnu --incdir=/usr/include/x86_64-linux-gnu --enable-gpl --disable-stripping --enable-avresample --enable-avisynth --enable-gnutls --enable-ladspa --enable-libass --enable-libbluray --enable-libbs2b --enable-libcaca --enable-libcdio --enable-libflite --enable-libfontconfig --enable-libfreetype --enable-libfribidi --enable-libgme --enable-libgsm --enable-libmp3lame --enable-libmysofa --enable-libopenjpeg --enable-libopenmpt --enable-libopus --enable-libpulse --enable-librubberband --enable-librsvg --enable-libshine --enable-libsnappy --enable-libsoxr --enable-libspeex --enable-libssh --enable-libtheora --enable-libtwolame --enable-libvorbis --enable-libvpx --enable-libwavpack --enable-libwebp --enable-libx265 --enable-libxml2 --enable-libxvid --enable-libzmq --enable-libzvbi --enable-omx --enable-openal --enable-opengl --enable-sdl2 --enable-libdc1394 --enable-libdrm --enable-libiec61883 --enable-chromaprint --enable-frei0r --enable-libopencv --enable-libx264 --enable-shared\n","  libavutil      55. 78.100 / 55. 78.100\n","  libavcodec     57.107.100 / 57.107.100\n","  libavformat    57. 83.100 / 57. 83.100\n","  libavdevice    57. 10.100 / 57. 10.100\n","  libavfilter     6.107.100 /  6.107.100\n","  libavresample   3.  7.  0 /  3.  7.  0\n","  libswscale      4.  8.100 /  4.  8.100\n","  libswresample   2.  9.100 /  2.  9.100\n","  libpostproc    54.  7.100 / 54.  7.100\n","Input #0, image2, from '/content/doom_data/episode_1/%01d.png':\n","  Duration: 00:00:01.64, start: 0.000000, bitrate: N/A\n","    Stream #0:0: Video: png, gray(pc), 640x480, 25 fps, 25 tbr, 25 tbn, 25 tbc\n","Stream mapping:\n","  Stream #0:0 -> #0:0 (png (native) -> h264 (libx264))\n","Press [q] to stop, [?] for help\n","\u001b[1;36m[libx264 @ 0x563391b77e00] \u001b[0musing cpu capabilities: MMX2 SSE2Fast SSSE3 SSE4.2 AVX FMA3 BMI2 AVX2\n","\u001b[1;36m[libx264 @ 0x563391b77e00] \u001b[0mprofile High, level 3.0\n","\u001b[1;36m[libx264 @ 0x563391b77e00] \u001b[0m264 - core 152 r2854 e9a5903 - H.264/MPEG-4 AVC codec - Copyleft 2003-2017 - http://www.videolan.org/x264.html - options: cabac=1 ref=3 deblock=1:0:0 analyse=0x3:0x113 me=hex subme=7 psy=1 psy_rd=1.00:0.00 mixed_ref=1 me_range=16 chroma_me=1 trellis=1 8x8dct=1 cqm=0 deadzone=21,11 fast_pskip=1 chroma_qp_offset=-2 threads=3 lookahead_threads=1 sliced_threads=0 nr=0 decimate=1 interlaced=0 bluray_compat=0 constrained_intra=0 bframes=3 b_pyramid=2 b_adapt=1 b_bias=0 direct=1 weightb=1 open_gop=0 weightp=2 keyint=250 keyint_min=25 scenecut=40 intra_refresh=0 rc_lookahead=40 rc=crf mbtree=1 crf=23.0 qcomp=0.60 qpmin=0 qpmax=69 qpstep=4 ip_ratio=1.40 aq=1:1.00\n","Output #0, mp4, to '/content/doom_videos/episode_1.mp4':\n","  Metadata:\n","    encoder         : Lavf57.83.100\n","    Stream #0:0: Video: h264 (libx264) (avc1 / 0x31637661), yuv420p, 640x480, q=-1--1, 25 fps, 12800 tbn, 25 tbc\n","    Metadata:\n","      encoder         : Lavc57.107.100 libx264\n","    Side data:\n","      cpb: bitrate max/min/avg: 0/0/0 buffer size: 0 vbv_delay: -1\n","frame=  718 fps=115 q=-1.0 Lsize=    1216kB time=00:00:28.60 bitrate= 348.4kbits/s speed=4.59x    \n","video:1207kB audio:0kB subtitle:0kB other streams:0kB global headers:0kB muxing overhead: 0.764925%\n","\u001b[1;36m[libx264 @ 0x563391b77e00] \u001b[0mframe I:4     Avg QP:16.39  size: 71516\n","\u001b[1;36m[libx264 @ 0x563391b77e00] \u001b[0mframe P:181   Avg QP:16.21  size:  5162\n","\u001b[1;36m[libx264 @ 0x563391b77e00] \u001b[0mframe B:533   Avg QP:20.36  size:    28\n","\u001b[1;36m[libx264 @ 0x563391b77e00] \u001b[0mconsecutive B-frames:  1.0%  0.0%  0.4% 98.6%\n","\u001b[1;36m[libx264 @ 0x563391b77e00] \u001b[0mmb I  I16..4: 11.6% 20.9% 67.5%\n","\u001b[1;36m[libx264 @ 0x563391b77e00] \u001b[0mmb P  I16..4:  0.2%  1.1%  2.9%  P16..4:  5.7%  2.2%  1.7%  0.0%  0.0%    skip:86.0%\n","\u001b[1;36m[libx264 @ 0x563391b77e00] \u001b[0mmb B  I16..4:  0.0%  0.0%  0.0%  B16..8:  0.7%  0.0%  0.0%  direct: 0.0%  skip:99.3%  L0:30.2% L1:68.9% BI: 0.9%\n","\u001b[1;36m[libx264 @ 0x563391b77e00] \u001b[0m8x8 transform intra:24.4% inter:44.0%\n","\u001b[1;36m[libx264 @ 0x563391b77e00] \u001b[0mcoded y,uvDC,uvAC intra: 93.6% 0.0% 0.0% inter: 1.7% 0.0% 0.0%\n","\u001b[1;36m[libx264 @ 0x563391b77e00] \u001b[0mi16 v,h,dc,p: 21% 20% 51%  8%\n","\u001b[1;36m[libx264 @ 0x563391b77e00] \u001b[0mi8 v,h,dc,ddl,ddr,vr,hd,vl,hu:  7% 15% 40%  5%  6%  7%  7%  4%  9%\n","\u001b[1;36m[libx264 @ 0x563391b77e00] \u001b[0mi4 v,h,dc,ddl,ddr,vr,hd,vl,hu: 17% 25% 19%  6%  7%  5%  9%  4%  9%\n","\u001b[1;36m[libx264 @ 0x563391b77e00] \u001b[0mi8c dc,h,v,p: 100%  0%  0%  0%\n","\u001b[1;36m[libx264 @ 0x563391b77e00] \u001b[0mWeighted P-Frames: Y:1.7% UV:0.0%\n","\u001b[1;36m[libx264 @ 0x563391b77e00] \u001b[0mref P L0: 71.2% 13.4% 14.3%  1.1%\n","\u001b[1;36m[libx264 @ 0x563391b77e00] \u001b[0mref B L0: 92.0%  7.4%  0.6%\n","\u001b[1;36m[libx264 @ 0x563391b77e00] \u001b[0mref B L1: 92.3%  7.7%\n","\u001b[1;36m[libx264 @ 0x563391b77e00] \u001b[0mkb/s:344.12\n","ffmpeg version 3.4.8-0ubuntu0.2 Copyright (c) 2000-2020 the FFmpeg developers\n","  built with gcc 7 (Ubuntu 7.5.0-3ubuntu1~18.04)\n","  configuration: --prefix=/usr --extra-version=0ubuntu0.2 --toolchain=hardened --libdir=/usr/lib/x86_64-linux-gnu --incdir=/usr/include/x86_64-linux-gnu --enable-gpl --disable-stripping --enable-avresample --enable-avisynth --enable-gnutls --enable-ladspa --enable-libass --enable-libbluray --enable-libbs2b --enable-libcaca --enable-libcdio --enable-libflite --enable-libfontconfig --enable-libfreetype --enable-libfribidi --enable-libgme --enable-libgsm --enable-libmp3lame --enable-libmysofa --enable-libopenjpeg --enable-libopenmpt --enable-libopus --enable-libpulse --enable-librubberband --enable-librsvg --enable-libshine --enable-libsnappy --enable-libsoxr --enable-libspeex --enable-libssh --enable-libtheora --enable-libtwolame --enable-libvorbis --enable-libvpx --enable-libwavpack --enable-libwebp --enable-libx265 --enable-libxml2 --enable-libxvid --enable-libzmq --enable-libzvbi --enable-omx --enable-openal --enable-opengl --enable-sdl2 --enable-libdc1394 --enable-libdrm --enable-libiec61883 --enable-chromaprint --enable-frei0r --enable-libopencv --enable-libx264 --enable-shared\n","  libavutil      55. 78.100 / 55. 78.100\n","  libavcodec     57.107.100 / 57.107.100\n","  libavformat    57. 83.100 / 57. 83.100\n","  libavdevice    57. 10.100 / 57. 10.100\n","  libavfilter     6.107.100 /  6.107.100\n","  libavresample   3.  7.  0 /  3.  7.  0\n","  libswscale      4.  8.100 /  4.  8.100\n","  libswresample   2.  9.100 /  2.  9.100\n","  libpostproc    54.  7.100 / 54.  7.100\n","Input #0, image2, from '/content/doom_data/episode_5/%01d.png':\n","  Duration: 00:00:00.80, start: 0.000000, bitrate: N/A\n","    Stream #0:0: Video: png, gray(pc), 640x480, 25 fps, 25 tbr, 25 tbn, 25 tbc\n","Stream mapping:\n","  Stream #0:0 -> #0:0 (png (native) -> h264 (libx264))\n","Press [q] to stop, [?] for help\n","\u001b[1;36m[libx264 @ 0x56280018de00] \u001b[0musing cpu capabilities: MMX2 SSE2Fast SSSE3 SSE4.2 AVX FMA3 BMI2 AVX2\n","\u001b[1;36m[libx264 @ 0x56280018de00] \u001b[0mprofile High, level 3.0\n","\u001b[1;36m[libx264 @ 0x56280018de00] \u001b[0m264 - core 152 r2854 e9a5903 - H.264/MPEG-4 AVC codec - Copyleft 2003-2017 - http://www.videolan.org/x264.html - options: cabac=1 ref=3 deblock=1:0:0 analyse=0x3:0x113 me=hex subme=7 psy=1 psy_rd=1.00:0.00 mixed_ref=1 me_range=16 chroma_me=1 trellis=1 8x8dct=1 cqm=0 deadzone=21,11 fast_pskip=1 chroma_qp_offset=-2 threads=3 lookahead_threads=1 sliced_threads=0 nr=0 decimate=1 interlaced=0 bluray_compat=0 constrained_intra=0 bframes=3 b_pyramid=2 b_adapt=1 b_bias=0 direct=1 weightb=1 open_gop=0 weightp=2 keyint=250 keyint_min=25 scenecut=40 intra_refresh=0 rc_lookahead=40 rc=crf mbtree=1 crf=23.0 qcomp=0.60 qpmin=0 qpmax=69 qpstep=4 ip_ratio=1.40 aq=1:1.00\n","Output #0, mp4, to '/content/doom_videos/episode_5.mp4':\n","  Metadata:\n","    encoder         : Lavf57.83.100\n","    Stream #0:0: Video: h264 (libx264) (avc1 / 0x31637661), yuv420p, 640x480, q=-1--1, 25 fps, 12800 tbn, 25 tbc\n","    Metadata:\n","      encoder         : Lavc57.107.100 libx264\n","    Side data:\n","      cpb: bitrate max/min/avg: 0/0/0 buffer size: 0 vbv_delay: -1\n","frame=  350 fps=111 q=-1.0 Lsize=     596kB time=00:00:13.88 bitrate= 351.8kbits/s speed=4.39x    \n","video:591kB audio:0kB subtitle:0kB other streams:0kB global headers:0kB muxing overhead: 0.829788%\n","\u001b[1;36m[libx264 @ 0x56280018de00] \u001b[0mframe I:2     Avg QP:17.27  size: 69653\n","\u001b[1;36m[libx264 @ 0x56280018de00] \u001b[0mframe P:88    Avg QP:16.41  size:  5205\n","\u001b[1;36m[libx264 @ 0x56280018de00] \u001b[0mframe B:260   Avg QP:20.37  size:    28\n","\u001b[1;36m[libx264 @ 0x56280018de00] \u001b[0mconsecutive B-frames:  0.9%  0.0%  0.9% 98.3%\n","\u001b[1;36m[libx264 @ 0x56280018de00] \u001b[0mmb I  I16..4: 13.0% 27.6% 59.4%\n","\u001b[1;36m[libx264 @ 0x56280018de00] \u001b[0mmb P  I16..4:  0.2%  1.5%  3.3%  P16..4:  9.6%  1.6%  1.3%  0.0%  0.0%    skip:82.6%\n","\u001b[1;36m[libx264 @ 0x56280018de00] \u001b[0mmb B  I16..4:  0.0%  0.0%  0.0%  B16..8:  0.8%  0.0%  0.0%  direct: 0.0%  skip:99.2%  L0:31.0% L1:67.9% BI: 1.1%\n","\u001b[1;36m[libx264 @ 0x56280018de00] \u001b[0m8x8 transform intra:28.8% inter:55.1%\n","\u001b[1;36m[libx264 @ 0x56280018de00] \u001b[0mcoded y,uvDC,uvAC intra: 94.1% 0.0% 0.0% inter: 1.9% 0.0% 0.0%\n","\u001b[1;36m[libx264 @ 0x56280018de00] \u001b[0mi16 v,h,dc,p: 30% 17% 43%  9%\n","\u001b[1;36m[libx264 @ 0x56280018de00] \u001b[0mi8 v,h,dc,ddl,ddr,vr,hd,vl,hu:  6% 14% 37%  6%  7%  8%  7%  6%  9%\n","\u001b[1;36m[libx264 @ 0x56280018de00] \u001b[0mi4 v,h,dc,ddl,ddr,vr,hd,vl,hu: 16% 24% 19%  6%  7%  5%  9%  5%  9%\n","\u001b[1;36m[libx264 @ 0x56280018de00] \u001b[0mi8c dc,h,v,p: 100%  0%  0%  0%\n","\u001b[1;36m[libx264 @ 0x56280018de00] \u001b[0mWeighted P-Frames: Y:6.8% UV:0.0%\n","\u001b[1;36m[libx264 @ 0x56280018de00] \u001b[0mref P L0: 49.3% 20.3% 29.1%  1.2%  0.0%\n","\u001b[1;36m[libx264 @ 0x56280018de00] \u001b[0mref B L0: 91.3%  8.4%  0.4%\n","\u001b[1;36m[libx264 @ 0x56280018de00] \u001b[0mref B L1: 93.9%  6.1%\n","\u001b[1;36m[libx264 @ 0x56280018de00] \u001b[0mkb/s:345.51\n"]}]},{"cell_type":"code","metadata":{"id":"cm83yVWQUfVN"},"source":["#import matplotlib.pyplot as plt\n","#\n","#for data_index , frames  in enumerate(episodes_images):\n","#  for idx , image in enumerate(frames):\n","#    plt.imshow(image)\n","#    plt.show()"],"execution_count":null,"outputs":[]}]}